<svg xmlns="http://www.w3.org/2000/svg" id="el_VX1sFrJko" viewBox="0 0 580 400"><style>@-webkit-keyframes kf_el_UZAV7s9I1cf_an_a9Zd47-CS{40%{-webkit-transform: translate(105.36764526367188px, 183.46409606933594px) scale(1, 1) translate(-105.36764526367188px, -183.46409606933594px);transform: translate(105.36764526367188px, 183.46409606933594px) scale(1, 1) translate(-105.36764526367188px, -183.46409606933594px);}70%{-webkit-transform: translate(105.36764526367188px, 183.46409606933594px) scale(0.42, 0.42) translate(-105.36764526367188px, -183.46409606933594px);transform: translate(105.36764526367188px, 183.46409606933594px) scale(0.42, 0.42) translate(-105.36764526367188px, -183.46409606933594px);}75%{-webkit-transform: translate(105.36764526367188px, 183.46409606933594px) scale(0.43, 0.43) translate(-105.36764526367188px, -183.46409606933594px);transform: translate(105.36764526367188px, 183.46409606933594px) scale(0.43, 0.43) translate(-105.36764526367188px, -183.46409606933594px);}83%{-webkit-transform: translate(105.36764526367188px, 183.46409606933594px) scale(0.2, 0.2) translate(-105.36764526367188px, -183.46409606933594px);transform: translate(105.36764526367188px, 183.46409606933594px) scale(0.2, 0.2) translate(-105.36764526367188px, -183.46409606933594px);}89%{-webkit-transform: translate(105.36764526367188px, 183.46409606933594px) scale(0.21, 0.21) translate(-105.36764526367188px, -183.46409606933594px);transform: translate(105.36764526367188px, 183.46409606933594px) scale(0.21, 0.21) translate(-105.36764526367188px, -183.46409606933594px);}92%{-webkit-transform: translate(105.36764526367188px, 183.46409606933594px) scale(0, 0) translate(-105.36764526367188px, -183.46409606933594px);transform: translate(105.36764526367188px, 183.46409606933594px) scale(0, 0) translate(-105.36764526367188px, -183.46409606933594px);}0%{-webkit-transform: translate(105.36764526367188px, 183.46409606933594px) scale(1, 1) translate(-105.36764526367188px, -183.46409606933594px);transform: translate(105.36764526367188px, 183.46409606933594px) scale(1, 1) translate(-105.36764526367188px, -183.46409606933594px);}100%{-webkit-transform: translate(105.36764526367188px, 183.46409606933594px) scale(0, 0) translate(-105.36764526367188px, -183.46409606933594px);transform: translate(105.36764526367188px, 183.46409606933594px) scale(0, 0) translate(-105.36764526367188px, -183.46409606933594px);}}@keyframes kf_el_UZAV7s9I1cf_an_a9Zd47-CS{40%{-webkit-transform: translate(105.36764526367188px, 183.46409606933594px) scale(1, 1) translate(-105.36764526367188px, -183.46409606933594px);transform: translate(105.36764526367188px, 183.46409606933594px) scale(1, 1) translate(-105.36764526367188px, -183.46409606933594px);}70%{-webkit-transform: translate(105.36764526367188px, 183.46409606933594px) scale(0.42, 0.42) translate(-105.36764526367188px, -183.46409606933594px);transform: translate(105.36764526367188px, 183.46409606933594px) scale(0.42, 0.42) translate(-105.36764526367188px, -183.46409606933594px);}75%{-webkit-transform: translate(105.36764526367188px, 183.46409606933594px) scale(0.43, 0.43) translate(-105.36764526367188px, -183.46409606933594px);transform: translate(105.36764526367188px, 183.46409606933594px) scale(0.43, 0.43) translate(-105.36764526367188px, -183.46409606933594px);}83%{-webkit-transform: translate(105.36764526367188px, 183.46409606933594px) scale(0.2, 0.2) translate(-105.36764526367188px, -183.46409606933594px);transform: translate(105.36764526367188px, 183.46409606933594px) scale(0.2, 0.2) translate(-105.36764526367188px, -183.46409606933594px);}89%{-webkit-transform: translate(105.36764526367188px, 183.46409606933594px) scale(0.21, 0.21) translate(-105.36764526367188px, -183.46409606933594px);transform: translate(105.36764526367188px, 183.46409606933594px) scale(0.21, 0.21) translate(-105.36764526367188px, -183.46409606933594px);}92%{-webkit-transform: translate(105.36764526367188px, 183.46409606933594px) scale(0, 0) translate(-105.36764526367188px, -183.46409606933594px);transform: translate(105.36764526367188px, 183.46409606933594px) scale(0, 0) translate(-105.36764526367188px, -183.46409606933594px);}0%{-webkit-transform: translate(105.36764526367188px, 183.46409606933594px) scale(1, 1) translate(-105.36764526367188px, -183.46409606933594px);transform: translate(105.36764526367188px, 183.46409606933594px) scale(1, 1) translate(-105.36764526367188px, -183.46409606933594px);}100%{-webkit-transform: translate(105.36764526367188px, 183.46409606933594px) scale(0, 0) translate(-105.36764526367188px, -183.46409606933594px);transform: translate(105.36764526367188px, 183.46409606933594px) scale(0, 0) translate(-105.36764526367188px, -183.46409606933594px);}}@-webkit-keyframes kf_el_UZAV7s9I1cf_an_qMgGfx_f_{10%{-webkit-transform: translate(105.36764526367188px, 183.46409606933594px) translate(-105.36764526367188px, -183.46409606933594px) translate(20px, 0px);transform: translate(105.36764526367188px, 183.46409606933594px) translate(-105.36764526367188px, -183.46409606933594px) translate(20px, 0px);}20%{-webkit-transform: translate(105.36764526367188px, 183.46409606933594px) translate(-105.36764526367188px, -183.46409606933594px) translate(40px, 0px);transform: translate(105.36764526367188px, 183.46409606933594px) translate(-105.36764526367188px, -183.46409606933594px) translate(40px, 0px);}30%{-webkit-transform: translate(105.36764526367188px, 183.46409606933594px) translate(-105.36764526367188px, -183.46409606933594px) translate(60px, 0px);transform: translate(105.36764526367188px, 183.46409606933594px) translate(-105.36764526367188px, -183.46409606933594px) translate(60px, 0px);}40%{-webkit-transform: translate(105.36764526367188px, 183.46409606933594px) translate(-105.36764526367188px, -183.46409606933594px) translate(80px, 0px);transform: translate(105.36764526367188px, 183.46409606933594px) translate(-105.36764526367188px, -183.46409606933594px) translate(80px, 0px);}50%{-webkit-transform: translate(105.36764526367188px, 183.46409606933594px) translate(-105.36764526367188px, -183.46409606933594px) translate(100px, 0px);transform: translate(105.36764526367188px, 183.46409606933594px) translate(-105.36764526367188px, -183.46409606933594px) translate(100px, 0px);}60%{-webkit-transform: translate(105.36764526367188px, 183.46409606933594px) translate(-105.36764526367188px, -183.46409606933594px) translate(140px, 0px);transform: translate(105.36764526367188px, 183.46409606933594px) translate(-105.36764526367188px, -183.46409606933594px) translate(140px, 0px);}70%{-webkit-transform: translate(105.36764526367188px, 183.46409606933594px) translate(-105.36764526367188px, -183.46409606933594px) translate(160px, 15px);transform: translate(105.36764526367188px, 183.46409606933594px) translate(-105.36764526367188px, -183.46409606933594px) translate(160px, 15px);}75%{-webkit-transform: translate(105.36764526367188px, 183.46409606933594px) translate(-105.36764526367188px, -183.46409606933594px) translate(180px, 15px);transform: translate(105.36764526367188px, 183.46409606933594px) translate(-105.36764526367188px, -183.46409606933594px) translate(180px, 15px);}83%{-webkit-transform: translate(105.36764526367188px, 183.46409606933594px) translate(-105.36764526367188px, -183.46409606933594px) translate(250px, 18px);transform: translate(105.36764526367188px, 183.46409606933594px) translate(-105.36764526367188px, -183.46409606933594px) translate(250px, 18px);}89%{-webkit-transform: translate(105.36764526367188px, 183.46409606933594px) translate(-105.36764526367188px, -183.46409606933594px) translate(300px, 15px);transform: translate(105.36764526367188px, 183.46409606933594px) translate(-105.36764526367188px, -183.46409606933594px) translate(300px, 15px);}0%{-webkit-transform: translate(105.36764526367188px, 183.46409606933594px) translate(-105.36764526367188px, -183.46409606933594px) translate(20px, 0px);transform: translate(105.36764526367188px, 183.46409606933594px) translate(-105.36764526367188px, -183.46409606933594px) translate(20px, 0px);}100%{-webkit-transform: translate(105.36764526367188px, 183.46409606933594px) translate(-105.36764526367188px, -183.46409606933594px) translate(300px, 15px);transform: translate(105.36764526367188px, 183.46409606933594px) translate(-105.36764526367188px, -183.46409606933594px) translate(300px, 15px);}}@keyframes kf_el_UZAV7s9I1cf_an_qMgGfx_f_{10%{-webkit-transform: translate(105.36764526367188px, 183.46409606933594px) translate(-105.36764526367188px, -183.46409606933594px) translate(20px, 0px);transform: translate(105.36764526367188px, 183.46409606933594px) translate(-105.36764526367188px, -183.46409606933594px) translate(20px, 0px);}20%{-webkit-transform: translate(105.36764526367188px, 183.46409606933594px) translate(-105.36764526367188px, -183.46409606933594px) translate(40px, 0px);transform: translate(105.36764526367188px, 183.46409606933594px) translate(-105.36764526367188px, -183.46409606933594px) translate(40px, 0px);}30%{-webkit-transform: translate(105.36764526367188px, 183.46409606933594px) translate(-105.36764526367188px, -183.46409606933594px) translate(60px, 0px);transform: translate(105.36764526367188px, 183.46409606933594px) translate(-105.36764526367188px, -183.46409606933594px) translate(60px, 0px);}40%{-webkit-transform: translate(105.36764526367188px, 183.46409606933594px) translate(-105.36764526367188px, -183.46409606933594px) translate(80px, 0px);transform: translate(105.36764526367188px, 183.46409606933594px) translate(-105.36764526367188px, -183.46409606933594px) translate(80px, 0px);}50%{-webkit-transform: translate(105.36764526367188px, 183.46409606933594px) translate(-105.36764526367188px, -183.46409606933594px) translate(100px, 0px);transform: translate(105.36764526367188px, 183.46409606933594px) translate(-105.36764526367188px, -183.46409606933594px) translate(100px, 0px);}60%{-webkit-transform: translate(105.36764526367188px, 183.46409606933594px) translate(-105.36764526367188px, -183.46409606933594px) translate(140px, 0px);transform: translate(105.36764526367188px, 183.46409606933594px) translate(-105.36764526367188px, -183.46409606933594px) translate(140px, 0px);}70%{-webkit-transform: translate(105.36764526367188px, 183.46409606933594px) translate(-105.36764526367188px, -183.46409606933594px) translate(160px, 15px);transform: translate(105.36764526367188px, 183.46409606933594px) translate(-105.36764526367188px, -183.46409606933594px) translate(160px, 15px);}75%{-webkit-transform: translate(105.36764526367188px, 183.46409606933594px) translate(-105.36764526367188px, -183.46409606933594px) translate(180px, 15px);transform: translate(105.36764526367188px, 183.46409606933594px) translate(-105.36764526367188px, -183.46409606933594px) translate(180px, 15px);}83%{-webkit-transform: translate(105.36764526367188px, 183.46409606933594px) translate(-105.36764526367188px, -183.46409606933594px) translate(250px, 18px);transform: translate(105.36764526367188px, 183.46409606933594px) translate(-105.36764526367188px, -183.46409606933594px) translate(250px, 18px);}89%{-webkit-transform: translate(105.36764526367188px, 183.46409606933594px) translate(-105.36764526367188px, -183.46409606933594px) translate(300px, 15px);transform: translate(105.36764526367188px, 183.46409606933594px) translate(-105.36764526367188px, -183.46409606933594px) translate(300px, 15px);}0%{-webkit-transform: translate(105.36764526367188px, 183.46409606933594px) translate(-105.36764526367188px, -183.46409606933594px) translate(20px, 0px);transform: translate(105.36764526367188px, 183.46409606933594px) translate(-105.36764526367188px, -183.46409606933594px) translate(20px, 0px);}100%{-webkit-transform: translate(105.36764526367188px, 183.46409606933594px) translate(-105.36764526367188px, -183.46409606933594px) translate(300px, 15px);transform: translate(105.36764526367188px, 183.46409606933594px) translate(-105.36764526367188px, -183.46409606933594px) translate(300px, 15px);}}@-webkit-keyframes kf_el_JnlLXEidcl_an_SGfnWSwFk{2%{-webkit-transform: translate(49.50450134277344px, 175.464111328125px) scale(0, 0) translate(-49.50450134277344px, -175.464111328125px);transform: translate(49.50450134277344px, 175.464111328125px) scale(0, 0) translate(-49.50450134277344px, -175.464111328125px);}40%{-webkit-transform: translate(49.50450134277344px, 175.464111328125px) scale(1.2, 1.2) translate(-49.50450134277344px, -175.464111328125px);transform: translate(49.50450134277344px, 175.464111328125px) scale(1.2, 1.2) translate(-49.50450134277344px, -175.464111328125px);}99.67%{-webkit-transform: translate(49.50450134277344px, 175.464111328125px) scale(0.43, 0.43) translate(-49.50450134277344px, -175.464111328125px);transform: translate(49.50450134277344px, 175.464111328125px) scale(0.43, 0.43) translate(-49.50450134277344px, -175.464111328125px);}0%{-webkit-transform: translate(49.50450134277344px, 175.464111328125px) scale(0, 0) translate(-49.50450134277344px, -175.464111328125px);transform: translate(49.50450134277344px, 175.464111328125px) scale(0, 0) translate(-49.50450134277344px, -175.464111328125px);}100%{-webkit-transform: translate(49.50450134277344px, 175.464111328125px) scale(0.43, 0.43) translate(-49.50450134277344px, -175.464111328125px);transform: translate(49.50450134277344px, 175.464111328125px) scale(0.43, 0.43) translate(-49.50450134277344px, -175.464111328125px);}}@keyframes kf_el_JnlLXEidcl_an_SGfnWSwFk{2%{-webkit-transform: translate(49.50450134277344px, 175.464111328125px) scale(0, 0) translate(-49.50450134277344px, -175.464111328125px);transform: translate(49.50450134277344px, 175.464111328125px) scale(0, 0) translate(-49.50450134277344px, -175.464111328125px);}40%{-webkit-transform: translate(49.50450134277344px, 175.464111328125px) scale(1.2, 1.2) translate(-49.50450134277344px, -175.464111328125px);transform: translate(49.50450134277344px, 175.464111328125px) scale(1.2, 1.2) translate(-49.50450134277344px, -175.464111328125px);}99.67%{-webkit-transform: translate(49.50450134277344px, 175.464111328125px) scale(0.43, 0.43) translate(-49.50450134277344px, -175.464111328125px);transform: translate(49.50450134277344px, 175.464111328125px) scale(0.43, 0.43) translate(-49.50450134277344px, -175.464111328125px);}0%{-webkit-transform: translate(49.50450134277344px, 175.464111328125px) scale(0, 0) translate(-49.50450134277344px, -175.464111328125px);transform: translate(49.50450134277344px, 175.464111328125px) scale(0, 0) translate(-49.50450134277344px, -175.464111328125px);}100%{-webkit-transform: translate(49.50450134277344px, 175.464111328125px) scale(0.43, 0.43) translate(-49.50450134277344px, -175.464111328125px);transform: translate(49.50450134277344px, 175.464111328125px) scale(0.43, 0.43) translate(-49.50450134277344px, -175.464111328125px);}}@-webkit-keyframes kf_el_JnlLXEidcl_an_VTbI4Fr0C{2%{-webkit-transform: translate(49.50450134277344px, 175.464111328125px) translate(-49.50450134277344px, -175.464111328125px) translate(0px, 0px);transform: translate(49.50450134277344px, 175.464111328125px) translate(-49.50450134277344px, -175.464111328125px) translate(0px, 0px);}40%{-webkit-transform: translate(49.50450134277344px, 175.464111328125px) translate(-49.50450134277344px, -175.464111328125px) translate(40px, 10px);transform: translate(49.50450134277344px, 175.464111328125px) translate(-49.50450134277344px, -175.464111328125px) translate(40px, 10px);}50%{-webkit-transform: translate(49.50450134277344px, 175.464111328125px) translate(-49.50450134277344px, -175.464111328125px) translate(60px, 10px);transform: translate(49.50450134277344px, 175.464111328125px) translate(-49.50450134277344px, -175.464111328125px) translate(60px, 10px);}60%{-webkit-transform: translate(49.50450134277344px, 175.464111328125px) translate(-49.50450134277344px, -175.464111328125px) translate(80px, 10px);transform: translate(49.50450134277344px, 175.464111328125px) translate(-49.50450134277344px, -175.464111328125px) translate(80px, 10px);}70%{-webkit-transform: translate(49.50450134277344px, 175.464111328125px) translate(-49.50450134277344px, -175.464111328125px) translate(100px, 10px);transform: translate(49.50450134277344px, 175.464111328125px) translate(-49.50450134277344px, -175.464111328125px) translate(100px, 10px);}80%{-webkit-transform: translate(49.50450134277344px, 175.464111328125px) translate(-49.50450134277344px, -175.464111328125px) translate(140px, 10px);transform: translate(49.50450134277344px, 175.464111328125px) translate(-49.50450134277344px, -175.464111328125px) translate(140px, 10px);}83%{-webkit-transform: translate(49.50450134277344px, 175.464111328125px) translate(-49.50450134277344px, -175.464111328125px) translate(155px, -35px);transform: translate(49.50450134277344px, 175.464111328125px) translate(-49.50450134277344px, -175.464111328125px) translate(155px, -35px);}90%{-webkit-transform: translate(49.50450134277344px, 175.464111328125px) translate(-49.50450134277344px, -175.464111328125px) translate(155px, -35px);transform: translate(49.50450134277344px, 175.464111328125px) translate(-49.50450134277344px, -175.464111328125px) translate(155px, -35px);}99.33%{-webkit-transform: translate(49.50450134277344px, 175.464111328125px) translate(-49.50450134277344px, -175.464111328125px) translate(155px, -55px);transform: translate(49.50450134277344px, 175.464111328125px) translate(-49.50450134277344px, -175.464111328125px) translate(155px, -55px);}0%{-webkit-transform: translate(49.50450134277344px, 175.464111328125px) translate(-49.50450134277344px, -175.464111328125px) translate(0px, 0px);transform: translate(49.50450134277344px, 175.464111328125px) translate(-49.50450134277344px, -175.464111328125px) translate(0px, 0px);}100%{-webkit-transform: translate(49.50450134277344px, 175.464111328125px) translate(-49.50450134277344px, -175.464111328125px) translate(155px, -55px);transform: translate(49.50450134277344px, 175.464111328125px) translate(-49.50450134277344px, -175.464111328125px) translate(155px, -55px);}}@keyframes kf_el_JnlLXEidcl_an_VTbI4Fr0C{2%{-webkit-transform: translate(49.50450134277344px, 175.464111328125px) translate(-49.50450134277344px, -175.464111328125px) translate(0px, 0px);transform: translate(49.50450134277344px, 175.464111328125px) translate(-49.50450134277344px, -175.464111328125px) translate(0px, 0px);}40%{-webkit-transform: translate(49.50450134277344px, 175.464111328125px) translate(-49.50450134277344px, -175.464111328125px) translate(40px, 10px);transform: translate(49.50450134277344px, 175.464111328125px) translate(-49.50450134277344px, -175.464111328125px) translate(40px, 10px);}50%{-webkit-transform: translate(49.50450134277344px, 175.464111328125px) translate(-49.50450134277344px, -175.464111328125px) translate(60px, 10px);transform: translate(49.50450134277344px, 175.464111328125px) translate(-49.50450134277344px, -175.464111328125px) translate(60px, 10px);}60%{-webkit-transform: translate(49.50450134277344px, 175.464111328125px) translate(-49.50450134277344px, -175.464111328125px) translate(80px, 10px);transform: translate(49.50450134277344px, 175.464111328125px) translate(-49.50450134277344px, -175.464111328125px) translate(80px, 10px);}70%{-webkit-transform: translate(49.50450134277344px, 175.464111328125px) translate(-49.50450134277344px, -175.464111328125px) translate(100px, 10px);transform: translate(49.50450134277344px, 175.464111328125px) translate(-49.50450134277344px, -175.464111328125px) translate(100px, 10px);}80%{-webkit-transform: translate(49.50450134277344px, 175.464111328125px) translate(-49.50450134277344px, -175.464111328125px) translate(140px, 10px);transform: translate(49.50450134277344px, 175.464111328125px) translate(-49.50450134277344px, -175.464111328125px) translate(140px, 10px);}83%{-webkit-transform: translate(49.50450134277344px, 175.464111328125px) translate(-49.50450134277344px, -175.464111328125px) translate(155px, -35px);transform: translate(49.50450134277344px, 175.464111328125px) translate(-49.50450134277344px, -175.464111328125px) translate(155px, -35px);}90%{-webkit-transform: translate(49.50450134277344px, 175.464111328125px) translate(-49.50450134277344px, -175.464111328125px) translate(155px, -35px);transform: translate(49.50450134277344px, 175.464111328125px) translate(-49.50450134277344px, -175.464111328125px) translate(155px, -35px);}99.33%{-webkit-transform: translate(49.50450134277344px, 175.464111328125px) translate(-49.50450134277344px, -175.464111328125px) translate(155px, -55px);transform: translate(49.50450134277344px, 175.464111328125px) translate(-49.50450134277344px, -175.464111328125px) translate(155px, -55px);}0%{-webkit-transform: translate(49.50450134277344px, 175.464111328125px) translate(-49.50450134277344px, -175.464111328125px) translate(0px, 0px);transform: translate(49.50450134277344px, 175.464111328125px) translate(-49.50450134277344px, -175.464111328125px) translate(0px, 0px);}100%{-webkit-transform: translate(49.50450134277344px, 175.464111328125px) translate(-49.50450134277344px, -175.464111328125px) translate(155px, -55px);transform: translate(49.50450134277344px, 175.464111328125px) translate(-49.50450134277344px, -175.464111328125px) translate(155px, -55px);}}#el_VX1sFrJko *{-webkit-animation-duration: 10s;animation-duration: 10s;-webkit-animation-iteration-count: infinite;animation-iteration-count: infinite;-webkit-animation-timing-function: cubic-bezier(0, 0, 1, 1);animation-timing-function: cubic-bezier(0, 0, 1, 1);}#el_Q13esPq8Vq{fill: #fff;}#el_1ox9uya4LJ{fill: url(#gridpattern);stroke-width: 0;}#el_JnlLXEidcl{stroke: null;}#el_w-wxeOyYoz{stroke: null;fill: #EFC75E;}#el_avr4aS2LeO{stroke: null;fill: #ff0000;}#el_Qruoe_i0lp{stroke: null;fill: #DBB551;}#el_h8PQtSmjQn{stroke: null;fill: #F7E3AF;}#el_P93vH2CSIF{stroke: null;fill: #F1D999;}#el_bPVe-glrHn{stroke: null;fill: #F2F2F2;}#el_7bC1RX82Ph{stroke: null;-webkit-transform: matrix(0.2502451111198827,0,0,0.3437750894940362,88.22602069776613,205.78704805882523);transform: matrix(0.2502451111198827,0,0,0.3437750894940362,88.22602069776613,205.78704805882523);fill-opacity: null;stroke-opacity: null;stroke-width: 0;fill: #000000;}#el_wXdbToY3pQ{stroke: null;}#el_Yv8qjYTKaj{stroke: null;fill: #FFD24D;}#el_PEyXxyYQagl{stroke: null;-webkit-transform: matrix(0.31996664685248677,0,0,0.32367625313707094,-1014.7491574627347,-689.0601556720067);transform: matrix(0.31996664685248677,0,0,0.32367625313707094,-1014.7491574627347,-689.0601556720067);fill: #8B7E7F;}#el_x73cPiykCtF{stroke: null;fill: #C2B8B9;}#el_c4T7BIxLssl{stroke: null;fill: #463836;}#el_-xFH2HApjhU{stroke: null;-webkit-transform: matrix(0.31996664685248677,0,0,0.32367625313707094,-1014.7491574627347,-689.0601556720067);transform: matrix(0.31996664685248677,0,0,0.32367625313707094,-1014.7491574627347,-689.0601556720067);fill: #8B7E7F;}#el_eI6k5U8Yehz{stroke: null;fill: #C2B8B9;}#el_p36GjHQptNb{stroke: null;fill: #463836;}#el_Hi-IC16-UQm{stroke: null;-webkit-transform: matrix(0.31996664685248677,0,0,0.32367625313707094,-1014.7491574627347,-689.0601556720067);transform: matrix(0.31996664685248677,0,0,0.32367625313707094,-1014.7491574627347,-689.0601556720067);fill: #8B7E7F;}#el_mzuzzzIIznW{stroke: null;fill: #C2B8B9;}#el_OciiWc6UVYn{stroke: null;fill: #463836;}#el_YxSNxnhZkIk{stroke: null;-webkit-transform: matrix(0.31996664685248677,0,0,0.32367625313707094,-1014.7491574627347,-689.0601556720067);transform: matrix(0.31996664685248677,0,0,0.32367625313707094,-1014.7491574627347,-689.0601556720067);}#el_QCUtwunqDUV{stroke: null;-webkit-transform: matrix(0.31996664685248677,0,0,0.32367625313707094,-1014.7491574627347,-689.0601556720067);transform: matrix(0.31996664685248677,0,0,0.32367625313707094,-1014.7491574627347,-689.0601556720067);}#el_Gxq9Q6Oneob{stroke: null;-webkit-transform: matrix(0.31996664685248677,0,0,0.32367625313707094,-1014.7491574627347,-689.0601556720067);transform: matrix(0.31996664685248677,0,0,0.32367625313707094,-1014.7491574627347,-689.0601556720067);}#el_mt0gi-ypxeY{stroke: null;-webkit-transform: matrix(0.31996664685248677,0,0,0.32367625313707094,-1014.7491574627347,-689.0601556720067);transform: matrix(0.31996664685248677,0,0,0.32367625313707094,-1014.7491574627347,-689.0601556720067);}#el_Gt8lt-ACOF2{stroke: null;-webkit-transform: matrix(0.31996664685248677,0,0,0.32367625313707094,-1014.7491574627347,-689.0601556720067);transform: matrix(0.31996664685248677,0,0,0.32367625313707094,-1014.7491574627347,-689.0601556720067);}#el_tKa-uSO72X0{stroke: null;-webkit-transform: matrix(0.31996664685248677,0,0,0.32367625313707094,-1014.7491574627347,-689.0601556720067);transform: matrix(0.31996664685248677,0,0,0.32367625313707094,-1014.7491574627347,-689.0601556720067);}#el_x4JaRi9hWSh{stroke: null;-webkit-transform: matrix(0.31996664685248677,0,0,0.32367625313707094,-1014.7491574627347,-689.0601556720067);transform: matrix(0.31996664685248677,0,0,0.32367625313707094,-1014.7491574627347,-689.0601556720067);}#el_Ks7eW7S6_XK{stroke: null;-webkit-transform: matrix(0.31996664685248677,0,0,0.32367625313707094,-1014.7491574627347,-689.0601556720067);transform: matrix(0.31996664685248677,0,0,0.32367625313707094,-1014.7491574627347,-689.0601556720067);}#el_iawWqrSWcb7{stroke: null;-webkit-transform: matrix(0.31996664685248677,0,0,0.32367625313707094,-1014.7491574627347,-689.0601556720067);transform: matrix(0.31996664685248677,0,0,0.32367625313707094,-1014.7491574627347,-689.0601556720067);}#el_IcWIFwL_6G_{stroke: null;-webkit-transform: matrix(0.31996664685248677,0,0,0.32367625313707094,-1014.7491574627347,-689.0601556720067);transform: matrix(0.31996664685248677,0,0,0.32367625313707094,-1014.7491574627347,-689.0601556720067);}#el_8tL0sGz9gX1{stroke: null;-webkit-transform: matrix(0.31996664685248677,0,0,0.32367625313707094,-1014.7491574627347,-689.0601556720067);transform: matrix(0.31996664685248677,0,0,0.32367625313707094,-1014.7491574627347,-689.0601556720067);}#el_n0hp9OA9NrB{stroke: null;-webkit-transform: matrix(0.31996664685248677,0,0,0.32367625313707094,-1014.7491574627347,-689.0601556720067);transform: matrix(0.31996664685248677,0,0,0.32367625313707094,-1014.7491574627347,-689.0601556720067);}#el_w5CK65KCGdX{stroke: null;-webkit-transform: matrix(0.31996664685248677,0,0,0.32367625313707094,-1014.7491574627347,-689.0601556720067);transform: matrix(0.31996664685248677,0,0,0.32367625313707094,-1014.7491574627347,-689.0601556720067);}#el_J5__xcRB0Ha{stroke: null;-webkit-transform: matrix(0.31996664685248677,0,0,0.32367625313707094,-1014.7491574627347,-689.0601556720067);transform: matrix(0.31996664685248677,0,0,0.32367625313707094,-1014.7491574627347,-689.0601556720067);}#el_0KhyjMgMhkN{stroke: null;-webkit-transform: matrix(0.31996664685248677,0,0,0.32367625313707094,-1014.7491574627347,-689.0601556720067);transform: matrix(0.31996664685248677,0,0,0.32367625313707094,-1014.7491574627347,-689.0601556720067);}#el_Zf7K2l6YLv_{stroke: null;}#el_jMjMh2IM8s5{stroke: null;}#el_QBVHLfA33XH{stroke: null;}#el_bVdHs7t_HMq{stroke: null;fill: #292c32;}#el_-Vq39lNqlSR{stroke: null;fill: #292c32;}#el_F4B8csN6VUE{stroke: null;fill: #41494e;}#el_3j5x9qCJ6vz{stroke: null;fill: #0cbf4e;}#el_22fNPr1vglA{stroke: null;-webkit-transform: matrix(0.14984805108214067,0,0,0.0892453815087764,-317.86482362410686,-49.689774570937885);transform: matrix(0.14984805108214067,0,0,0.0892453815087764,-317.86482362410686,-49.689774570937885);fill: #5dc75d;}#el_xKGcbbB4NkV{stroke: null;}#el_cC6RYrnwzVS{stroke: null;}#el_6uWMA4FvGys{stroke: #000;stroke-width: 1.5;fill: none;}#el_UZAV7s9I1cf{stroke: null;}#el_n3_3B0hligy{stroke: null;fill: #EFC75E;}#el_7YOIOTNvHUH{stroke: null;fill: #E7BF55;}#el_tiGrkGMAS7t{stroke: null;fill: #DBB551;}#el_YrSCZgJls4F{stroke: null;fill: #F7E3AF;}#el_w71VlGO8GQT{stroke: null;fill: #F1D999;}#el_HWgqhU9x7SO{stroke: null;fill: #F2F2F2;}#el_NeUJkOjtEtR{stroke: null;}#el_rwjr5iqZBEB{stroke: null;-webkit-transform: matrix(0.1752386770728583,0,0,0.17328560000388837,-126.14795337931719,-288.705633809539);transform: matrix(0.1752386770728583,0,0,0.17328560000388837,-126.14795337931719,-288.705633809539);}#el__TFj3DAy6fG{stroke: null;fill: #2D404E;}#el__JBab066FY-{stroke: null;fill: #48B19B;}#el_G3ybubhs6eM{stroke: null;fill: #48B19B;}#el_K7LnvPdNGs_{stroke: null;fill: #48B19B;}#el_YYodfnHAnwC{stroke: null;fill: #48B19B;}#el_ShByCuEIwFT{stroke: null;opacity: 0.6;fill: #253744;}#el_Yu2bTlX2W8z{stroke: null;-webkit-transform: matrix(0.1752386770728583,0,0,0.17328560000388837,-126.14795337931719,-288.705633809539);transform: matrix(0.1752386770728583,0,0,0.17328560000388837,-126.14795337931719,-288.705633809539);}#el_kasZYQxpVG1{stroke: null;-webkit-transform: matrix(0.1752386770728583,0,0,0.17328560000388837,-126.14795337931719,-288.705633809539);transform: matrix(0.1752386770728583,0,0,0.17328560000388837,-126.14795337931719,-288.705633809539);}#el_cXgZkbTP-Rl{stroke: null;-webkit-transform: matrix(0.1752386770728583,0,0,0.17328560000388837,-126.14795337931719,-288.705633809539);transform: matrix(0.1752386770728583,0,0,0.17328560000388837,-126.14795337931719,-288.705633809539);}#el_fvnOPE7Jiil{stroke: null;-webkit-transform: matrix(0.1752386770728583,0,0,0.17328560000388837,-126.14795337931719,-288.705633809539);transform: matrix(0.1752386770728583,0,0,0.17328560000388837,-126.14795337931719,-288.705633809539);}#el_YWHjefMQ4YE{stroke: null;-webkit-transform: matrix(0.1752386770728583,0,0,0.17328560000388837,-126.14795337931719,-288.705633809539);transform: matrix(0.1752386770728583,0,0,0.17328560000388837,-126.14795337931719,-288.705633809539);}#el_eqyHHUCLw4G{stroke: null;-webkit-transform: matrix(0.1752386770728583,0,0,0.17328560000388837,-126.14795337931719,-288.705633809539);transform: matrix(0.1752386770728583,0,0,0.17328560000388837,-126.14795337931719,-288.705633809539);}#el_0e1h6yq6-DT{stroke: null;-webkit-transform: matrix(0.1752386770728583,0,0,0.17328560000388837,-126.14795337931719,-288.705633809539);transform: matrix(0.1752386770728583,0,0,0.17328560000388837,-126.14795337931719,-288.705633809539);}#el_8HUCd8XY9iu{stroke: null;-webkit-transform: matrix(0.1752386770728583,0,0,0.17328560000388837,-126.14795337931719,-288.705633809539);transform: matrix(0.1752386770728583,0,0,0.17328560000388837,-126.14795337931719,-288.705633809539);}#el_vstBxOWExC0{stroke: null;-webkit-transform: matrix(0.1752386770728583,0,0,0.17328560000388837,-126.14795337931719,-288.705633809539);transform: matrix(0.1752386770728583,0,0,0.17328560000388837,-126.14795337931719,-288.705633809539);}#el_9uSHOWDrn3p{stroke: null;-webkit-transform: matrix(0.1752386770728583,0,0,0.17328560000388837,-126.14795337931719,-288.705633809539);transform: matrix(0.1752386770728583,0,0,0.17328560000388837,-126.14795337931719,-288.705633809539);}#el_GvpyuA5nbNh{stroke: null;-webkit-transform: matrix(0.1752386770728583,0,0,0.17328560000388837,-126.14795337931719,-288.705633809539);transform: matrix(0.1752386770728583,0,0,0.17328560000388837,-126.14795337931719,-288.705633809539);}#el_krj-UkIbur-{stroke: null;-webkit-transform: matrix(0.1752386770728583,0,0,0.17328560000388837,-126.14795337931719,-288.705633809539);transform: matrix(0.1752386770728583,0,0,0.17328560000388837,-126.14795337931719,-288.705633809539);}#el__EABpulh4Bt{stroke: null;-webkit-transform: matrix(0.1752386770728583,0,0,0.17328560000388837,-126.14795337931719,-288.705633809539);transform: matrix(0.1752386770728583,0,0,0.17328560000388837,-126.14795337931719,-288.705633809539);}#el_hjG6h-tWqvY{stroke: null;-webkit-transform: matrix(0.1752386770728583,0,0,0.17328560000388837,-126.14795337931719,-288.705633809539);transform: matrix(0.1752386770728583,0,0,0.17328560000388837,-126.14795337931719,-288.705633809539);}#el_7afPKkOdcQ9{stroke: null;-webkit-transform: matrix(0.1752386770728583,0,0,0.17328560000388837,-126.14795337931719,-288.705633809539);transform: matrix(0.1752386770728583,0,0,0.17328560000388837,-126.14795337931719,-288.705633809539);}#el_v1LHcNpz7Lu{stroke: null;}#el_YAb_QNVpxy-{stroke: null;fill: #ff8040;}#el_FbJN9Umhrjn{stroke: null;fill: #e4e4ef;}#el_JnlLXEidcl_an_VTbI4Fr0C{-webkit-animation-fill-mode: backwards;animation-fill-mode: backwards;-webkit-transform: translate(49.50450134277344px, 175.464111328125px) translate(-49.50450134277344px, -175.464111328125px) translate(0px, 0px);transform: translate(49.50450134277344px, 175.464111328125px) translate(-49.50450134277344px, -175.464111328125px) translate(0px, 0px);-webkit-animation-name: kf_el_JnlLXEidcl_an_VTbI4Fr0C;animation-name: kf_el_JnlLXEidcl_an_VTbI4Fr0C;-webkit-animation-timing-function: cubic-bezier(0, 0, 1, 1);animation-timing-function: cubic-bezier(0, 0, 1, 1);}#el_JnlLXEidcl_an_SGfnWSwFk{-webkit-animation-fill-mode: backwards;animation-fill-mode: backwards;-webkit-transform: translate(49.50450134277344px, 175.464111328125px) scale(0, 0) translate(-49.50450134277344px, -175.464111328125px);transform: translate(49.50450134277344px, 175.464111328125px) scale(0, 0) translate(-49.50450134277344px, -175.464111328125px);-webkit-animation-name: kf_el_JnlLXEidcl_an_SGfnWSwFk;animation-name: kf_el_JnlLXEidcl_an_SGfnWSwFk;-webkit-animation-timing-function: cubic-bezier(0, 0, 1, 1);animation-timing-function: cubic-bezier(0, 0, 1, 1);}#el_UZAV7s9I1cf_an_qMgGfx_f_{-webkit-animation-fill-mode: backwards;animation-fill-mode: backwards;-webkit-transform: translate(105.36764526367188px, 183.46409606933594px) translate(-105.36764526367188px, -183.46409606933594px) translate(20px, 0px);transform: translate(105.36764526367188px, 183.46409606933594px) translate(-105.36764526367188px, -183.46409606933594px) translate(20px, 0px);-webkit-animation-name: kf_el_UZAV7s9I1cf_an_qMgGfx_f_;animation-name: kf_el_UZAV7s9I1cf_an_qMgGfx_f_;-webkit-animation-timing-function: cubic-bezier(0, 0, 1, 1);animation-timing-function: cubic-bezier(0, 0, 1, 1);}#el_UZAV7s9I1cf_an_a9Zd47-CS{-webkit-animation-fill-mode: backwards;animation-fill-mode: backwards;-webkit-transform: translate(105.36764526367188px, 183.46409606933594px) scale(1, 1) translate(-105.36764526367188px, -183.46409606933594px);transform: translate(105.36764526367188px, 183.46409606933594px) scale(1, 1) translate(-105.36764526367188px, -183.46409606933594px);-webkit-animation-name: kf_el_UZAV7s9I1cf_an_a9Zd47-CS;animation-name: kf_el_UZAV7s9I1cf_an_a9Zd47-CS;-webkit-animation-timing-function: cubic-bezier(0, 0, 1, 1);animation-timing-function: cubic-bezier(0, 0, 1, 1);}</style>
 <!-- Created with Method Draw - http://github.com/duopixel/Method-Draw/ -->

 <g id="el_WVWzBSr32X">
  <title>background</title>
  <rect id="el_Q13esPq8Vq" height="402" width="582" y="-1" x="-1"/>
  <g display="none" overflow="visible" y="0" x="0" height="100%" width="100%" id="el_TTMoH6GCya">
   <rect y="0" x="0" height="100%" width="100%" id="el_1ox9uya4LJ"/>
  </g>
 </g>
 <g id="el_9fb7HI_bTX">
  <title>Layer 1</title>
  <g id="el_JnlLXEidcl_an_VTbI4Fr0C" data-animator-group="true" data-animator-type="0"><g id="el_JnlLXEidcl_an_SGfnWSwFk" data-animator-group="true" data-animator-type="2"><g id="el_JnlLXEidcl">
   <path id="el_w-wxeOyYoz" d="m58.358039,184.752663l17.263821,-9.288565l17.263821,9.288491l0,1.226817l-17.263821,9.288491l-17.263821,-9.259197l0,-1.256037z"/>
   <path id="el_avr4aS2LeO" d="m57.611732,183.979169l17.263821,9.288491l17.263821,-9.288491l0,18.606203l-17.317792,9.288492l-17.20985,-9.288418l0,-18.606277z"/>
   <path id="el_Qruoe_i0lp" d="m75.621859,212.618211l0,-18.576982l-17.155948,-9.230198l-0.107873,0l0,18.547762l17.20985,9.288491l0.053971,-0.029073z"/>
   <path id="el_h8PQtSmjQn" d="m65.398439,180.984626l17.236835,9.288491l3.506707,-1.869372l-17.290806,-9.288417l-3.452737,1.869297z"/>
   <path id="el_P93vH2CSIF" d="m82.635274,190.273191l3.506707,-1.869372l0,5.841805l-0.94414,-0.175249l-0.998041,1.314404l-1.564526,-0.116808c0,-0.000074 0,-4.994781 0,-4.994781z"/>
   <path id="el_bPVe-glrHn" d="m72.061182,201.460274l-5.826544,-3.154555c-0.323686,-0.175249 -0.593469,0.02922 -0.593469,0.46738l0,4.235343c0,0.43816 0.269715,0.934686 0.593469,1.109935l5.85353,3.154555c0.323685,0.175249 0.593469,-0.02922 0.593469,-0.46738l0,-4.264565c-0.027054,-0.43816 -0.296769,-0.905391 -0.620454,-1.080714zm-1.321796,3.475907l-3.72252,-2.0154c-0.161842,-0.087662 -0.2967,-0.350498 -0.2967,-0.584188s0.134858,-0.350498 0.2967,-0.262911l3.72252,2.0154c0.161843,0.087662 0.296701,0.350498 0.296701,0.584187s-0.134858,0.350498 -0.296701,0.262911zm0.539499,-1.460507l-4.262019,-2.336752c-0.161842,-0.087662 -0.2967,-0.350498 -0.2967,-0.584188s0.134858,-0.350498 0.2967,-0.262911l4.262019,2.336752c0.161842,0.087662 0.2967,0.350498 0.2967,0.584188c0.000069,0.262911 -0.134858,0.350498 -0.2967,0.262911z"/>
   <text xml:space="preserve" text-anchor="start" font-family="Helvetica, Arial, sans-serif" font-size="24" id="el_7bC1RX82Ph" y="54.250002" x="-154.747797">Malicious Package</text>
  </g></g></g>
  <g id="el_wXdbToY3pQ">
   <path id="el_Yv8qjYTKaj" d="m528.071301,194.424922l-43.885985,0l0,-21.222157l-5.37128,0l0,21.222157l-43.885345,0c-1.483045,0 -2.68548,1.216052 -2.68548,2.716615l0,23.939096l5.37128,0l0,-21.222157l87.771651,0l0,21.222157l5.37128,0l0,-23.939096c-0.00032,-1.500563 -1.202755,-2.716615 -2.68612,-2.716615z"/>
   <rect id="el_PEyXxyYQagl" height="57.007" width="69.128" y="2618.146197" x="4641.706502"/>
   <path id="el_x73cPiykCtF" d="m500.247001,179.541641l-37.494332,0c-1.483045,0 -2.68548,-1.216052 -2.68548,-2.716615c0,-1.500887 1.202435,-2.716615 2.68548,-2.716615l37.494652,0c1.483685,0 2.68548,1.216052 2.68548,2.716615c0,1.500563 -1.202435,2.716615 -2.6858,2.716615z"/>
   <path id="el_c4T7BIxLssl" d="m515.50717,155.037406c0,3.843008 -3.079359,6.958068 -6.878323,6.958068l-54.258024,0c-3.798964,0 -6.878323,-3.11506 -6.878323,-6.958068l0,-32.440452c0,-3.843008 3.079359,-6.958068 6.878323,-6.958068l54.258024,0c3.798964,0 6.878323,3.11506 6.878323,6.958068l0,32.440452z"/>
   <rect id="el_-xFH2HApjhU" height="57.007" width="69.128" y="2932.721197" x="4787.249502"/>
   <path id="el_eI6k5U8Yehz" d="m546.818466,281.361127l-37.494652,0c-1.483045,0 -2.68548,-1.216052 -2.68548,-2.716615c0,-1.500887 1.202435,-2.716615 2.68548,-2.716615l37.494332,0c1.483685,0 2.68548,1.216052 2.68548,2.716615c0.00032,1.500563 -1.202115,2.716615 -2.68516,2.716615z"/>
   <path id="el_p36GjHQptNb" d="m562.078636,256.856569c0,3.843008 -3.079679,6.958068 -6.878323,6.958068l-54.258344,0c-3.798964,0 -6.878323,-3.11506 -6.878323,-6.958068l0,-32.440129c0,-3.843008 3.079359,-6.958068 6.878323,-6.958068l54.258024,0c3.798964,0 6.878323,3.115384 6.878323,6.958068l0.00032,32.440129l0,0z"/>
   <rect id="el_Hi-IC16-UQm" height="57.007" width="69.128" y="2932.721197" x="4496.151502"/>
   <path id="el_mzuzzzIIznW" d="m453.675856,281.361127l-37.494652,0c-1.483045,0 -2.68548,-1.216052 -2.68548,-2.716615c0,-1.500887 1.202435,-2.716615 2.68548,-2.716615l37.494652,0c1.483685,0 2.68548,1.216052 2.68548,2.716615c0,1.500563 -1.202115,2.716615 -2.68548,2.716615z"/>
   <path id="el_OciiWc6UVYn" d="m468.936025,256.856569c0,3.843008 -3.079359,6.958068 -6.878323,6.958068l-54.258024,0c-3.798964,0 -6.878323,-3.11506 -6.878323,-6.958068l0,-32.440129c0,-3.843008 3.079359,-6.958068 6.878323,-6.958068l54.258024,0c3.798964,0 6.878323,3.115384 6.878323,6.958068l0,32.440129z"/>
   <g id="el_YxSNxnhZkIk"/>
   <g id="el_QCUtwunqDUV"/>
   <g id="el_Gxq9Q6Oneob"/>
   <g id="el_mt0gi-ypxeY"/>
   <g id="el_Gt8lt-ACOF2"/>
   <g id="el_tKa-uSO72X0"/>
   <g id="el_x4JaRi9hWSh"/>
   <g id="el_Ks7eW7S6_XK"/>
   <g id="el_iawWqrSWcb7"/>
   <g id="el_IcWIFwL_6G_"/>
   <g id="el_8tL0sGz9gX1"/>
   <g id="el_n0hp9OA9NrB"/>
   <g id="el_w5CK65KCGdX"/>
   <g id="el_J5__xcRB0Ha"/>
   <g id="el_0KhyjMgMhkN"/>
  </g>
  <g id="el_Zf7K2l6YLv_">
   <path id="el_jMjMh2IM8s5" d="m263.629769,181.75847l11.238604,0l0,21.865118l-11.238604,0l0,-21.865118zm0,0"/>
   <path id="el_QBVHLfA33XH" d="m279.513663,206.30095l13.486325,12.94058l38.361101,0l0,-6.693404l-51.847426,-6.247177zm0,0"/>
   <path id="el_bVdHs7t_HMq" d="m254.638886,212.548127l0,6.693404l38.361101,0l0,-12.048127l-38.361101,5.354723zm0,0"/>
   <path id="el_-Vq39lNqlSR" d="m331.361089,212.548127l0,-6.693404c0,-2.952767 -4.03302,-5.354723 -8.990883,-5.354723l-29.370218,0l-8.990883,6.024063l8.990883,6.024063l38.361101,0zm0,0"/>
   <path id="el_F4B8csN6VUE" d="m292.999987,200.5l-29.370218,0c-4.957863,0 -8.990883,2.401956 -8.990883,5.354723l0,6.693404l38.361101,0l0,-12.048127zm0,0"/>
   <path id="el_3j5x9qCJ6vz" d="m317.874764,205.854723l4.495442,0l0,2.677361l-4.495442,0l0,-2.677361zm0,0"/>
   <g id="el_22fNPr1vglA">
    <path id="el_xKGcbbB4NkV" d="m4182.56171,2863.391769l30,0l0,30l-30,0l0,-30zm0,0"/>
    <path id="el_cC6RYrnwzVS" d="m4122.56171,2863.391769l30,0l0,30l-30,0l0,-30zm0,0"/>
   </g>
  </g>
  <line stroke-linecap="undefined" stroke-linejoin="undefined" id="el_6uWMA4FvGys" y2="199" x2="438.5" y1="212" x1="327.5"/>
  <g id="el_UZAV7s9I1cf_an_qMgGfx_f_" data-animator-group="true" data-animator-type="0"><g id="el_UZAV7s9I1cf_an_a9Zd47-CS" data-animator-group="true" data-animator-type="2"><g id="el_UZAV7s9I1cf">
   <path id="el_n3_3B0hligy" d="m105.367645,195.472678l23.132355,-12.008582l23.132355,12.008486l0,1.586072l-23.132355,12.008486l-23.132355,-11.970613l0,-1.623849z"/>
   <path id="el_7YOIOTNvHUH" d="m105.367645,195.472678l23.132355,12.008486l23.132355,-12.008486l0,24.054749l-23.204672,12.008487l-23.060038,-12.008391l0,-24.054845z"/>
   <path id="el_tiGrkGMAS7t" d="m128.5,231.498232l0,-24.016972l-22.987813,-11.933123l-0.144542,0l0,23.979195l23.060038,12.008486l0.072317,-0.037586z"/>
   <path id="el_YrSCZgJls4F" d="m114.801306,190.601227l23.096196,12.008486l4.698751,-2.416789l-23.168513,-12.00839l-4.626434,2.416693z"/>
   <path id="el_w71VlGO8GQT" d="m137.897502,202.609809l4.698751,-2.416789l0,7.552489l-1.265084,-0.226568l-1.337308,1.699308l-2.096359,-0.151013c0,-0.000096 0,-6.457427 0,-6.457427z"/>
   <path id="el_HWgqhU9x7SO" d="m123.728932,217.072861l-7.807176,-4.078319c-0.433717,-0.226568 -0.795209,0.037777 -0.795209,0.604245l0,5.4756c0,0.566468 0.3614,1.208395 0.795209,1.434963l7.843335,4.078319c0.433716,0.226568 0.795208,-0.037777 0.795208,-0.604245l0,-5.513378c-0.03625,-0.566468 -0.39765,-1.170521 -0.831367,-1.397185zm-1.771117,4.493774l-4.987926,-2.605579c-0.216858,-0.113332 -0.397558,-0.453136 -0.397558,-0.755259s0.1807,-0.453136 0.397558,-0.3399l4.987926,2.60558c0.216859,0.113332 0.397559,0.453136 0.397559,0.755258s-0.1807,0.453136 -0.397559,0.3399zm0.722892,-1.888194l-5.710818,-3.021034c-0.216858,-0.113332 -0.397558,-0.453136 -0.397558,-0.755259s0.1807,-0.453136 0.397558,-0.3399l5.710818,3.021034c0.216858,0.113332 0.397558,0.453136 0.397558,0.755259c0.000092,0.3399 -0.1807,0.453136 -0.397558,0.3399z"/>
  </g></g></g>
  <g id="el_NeUJkOjtEtR">
   <g id="el_rwjr5iqZBEB">
    <circle id="el__TFj3DAy6fG" r="256" cy="2808.690678" cx="1144.998108"/>
    <path id="el__JBab066FY-" d="m1400.998108,2808.690678c0,-51.363 -15.124,-99.191 -41.165,-139.275c0,0 -14.604,21.334 -11.86,35.047c2.742,13.715 18.855,14.762 17.2,24.822s-13.541,-2.879 -28.172,23.633c-14.63,26.514 -7.312,63.096 13.714,65.834c21.027,2.736 50.283,-10.061 50.283,-10.061z"/>
    <path id="el_G3ybubhs6eM" d="m1212.228108,2561.610678c29.797,8.088 57.434,21.424 81.857,38.951c0,0 -29.684,-4.896 -40.929,5.158c-11.244,10.057 -27.643,33.832 -40.929,0c-13.284,-33.83 0.001,-44.109 0.001,-44.109z"/>
    <path id="el_K7LnvPdNGs_" d="m952.517108,2639.909678c46.918,-53.465 115.756,-87.219 192.481,-87.219c0,0 -17.368,10.516 15.546,28.344c32.915,17.83 17.828,26.057 10.971,31.543c-6.856,5.486 -18.749,-10.971 -26.517,-21.941c-7.769,-10.973 -41.132,-27.885 -66.734,-18.74c-25.601,9.145 -47.539,15.9 -43.885,24.408c3.653,8.506 47.539,-7.945 63.996,-7.035c16.457,0.912 10.971,10.967 -4.569,22.854c-15.542,11.887 -17.374,26.514 -0.916,35.656c16.456,9.146 36.566,10.061 41.143,4.576c4.574,-5.486 -8.229,-41.143 22.858,-25.602s56.688,24.691 31.087,47.545c-25.602,22.852 -54.857,48.461 -55.773,63.084c-0.916,14.625 9.146,26.52 3.66,27.43c-5.486,0.91 -10.521,-5.941 -14.176,-10.973c-3.653,-5.029 -20.571,-6.855 -28.799,-3.658c-8.229,3.197 -23.774,15.541 -15.086,27.428c8.689,11.889 20.565,6.396 32.454,11.883c11.887,5.486 22.972,26.365 20.696,31.084c-2.276,4.717 -12.409,-1.256 -20.696,-17.369c-8.289,-16.115 -23.835,-5.486 -34.773,-8.229c-10.939,-2.742 -19.168,-4.57 -30.14,-23.771c-10.972,-19.199 -33.687,-24.572 -42.969,-35.656c-26.589,-31.75 -24.687,-55.771 -30.172,-66.742c-5.486,-10.974 -19.687,-28.9 -19.687,-28.9z"/>
    <path id="el_YYodfnHAnwC" d="m1169.683108,2812.348678c0,0 27.429,2.738 41.143,14.627c13.714,11.887 15.546,16.461 36.573,21.031c21.027,4.568 30.172,16.451 16.457,39.311c-13.714,22.857 -38.404,59.43 -50.287,70.402c-11.882,10.973 -26.512,20.115 -31.998,38.4c-5.485,18.283 -7.317,29.248 4.57,36.568c0,0 -6.396,15.545 -21.026,-4.57c-14.631,-20.117 -2.744,-43.885 0,-57.6c2.742,-13.713 10.055,-54.852 5.484,-64.914c-4.568,-10.059 -25.601,-16.461 -31.087,-37.486c-5.486,-21.026 4.115,-61.944 30.171,-55.769z"/>
    <path id="el_ShByCuEIwFT" d="m963.978108,2627.673678c99.975,-99.977 262.062,-99.975 362.038,0c99.976,99.973 99.976,262.062 0.001,362.037c0,0 116.148,-153.59 -48.293,-318.031c-164.442,-164.442 -313.746,-44.006 -313.746,-44.006z"/>
   </g>
   <g id="el_Yu2bTlX2W8z"/>
   <g id="el_kasZYQxpVG1"/>
   <g id="el_cXgZkbTP-Rl"/>
   <g id="el_fvnOPE7Jiil"/>
   <g id="el_YWHjefMQ4YE"/>
   <g id="el_eqyHHUCLw4G"/>
   <g id="el_0e1h6yq6-DT"/>
   <g id="el_8HUCd8XY9iu"/>
   <g id="el_vstBxOWExC0"/>
   <g id="el_9uSHOWDrn3p"/>
   <g id="el_GvpyuA5nbNh"/>
   <g id="el_krj-UkIbur-"/>
   <g id="el__EABpulh4Bt"/>
   <g id="el_hjG6h-tWqvY"/>
   <g id="el_7afPKkOdcQ9"/>
  </g>
  <g id="el_v1LHcNpz7Lu">
   <path id="el_YAb_QNVpxy-" d="m201.639211,172.111176l42.7219,0l0,68.777613l-42.7219,0l0,-68.777613zm0,0"/>
   <path id="el_FbJN9Umhrjn" d="m244.360785,216.120006l0,5.526767l-10.33147,0c-0.757822,0 -1.373205,1.237062 -1.373205,2.763383l0,13.715249c0,1.526322 0.615384,2.763383 1.373205,2.763383l-5.492169,0c0.757821,0 1.373205,-1.237062 1.373205,-2.763383l0,-13.715249c0,-1.526322 -0.615384,-2.763383 -1.373205,-2.763383l-11.073646,0c-0.757822,0 -1.373205,1.237062 -1.373205,2.763383l0,13.715249c0,1.526322 0.615384,2.763383 1.373205,2.763383l-5.491843,0c0.757496,0 1.373205,-1.237062 1.373205,-2.763383l0,-13.715249c0,-1.526322 -0.61571,-2.763383 -1.373205,-2.763383l-10.332773,0l0,-5.526767l2.049866,0c0.757496,0 1.373205,-1.237062 1.373205,-2.763383l0,-13.713281c0,-1.526322 -0.61571,-2.763383 -1.373205,-2.763383l-2.049866,0l0,-5.526767l10.332773,0c0.757496,0 1.373205,-1.237062 1.373205,-2.763383l0,-13.715249c0,-1.526321 -0.61571,-2.763383 -1.373205,-2.763383l5.491843,0c-0.757822,0 -1.373205,1.237062 -1.373205,2.763383l0,13.715249c0,1.526321 0.615384,2.763383 1.373205,2.763383l11.073646,0c0.757821,0 1.373205,-1.237062 1.373205,-2.763383l0,-13.715249c0,-1.526321 -0.615384,-2.763383 -1.373205,-2.763383l5.492169,0c-0.757822,0 -1.373205,1.237062 -1.373205,2.763383l0,13.715249c0,1.526321 0.615384,2.763383 1.373205,2.763383l10.33147,0l0,5.526767l-2.048889,0c-0.757496,0 -1.373205,1.237062 -1.373205,2.763383l0,13.713281c0,1.526322 0.61571,2.763383 1.373205,2.763383l2.048889,0zm-6.167526,-2.763383l0,-13.713281c0,-1.526322 -0.615384,-2.763383 -1.373205,-2.763383l-11.073646,0c-0.757821,0 -1.373205,1.237062 -1.373205,2.763383l0,13.713281c0,1.526322 0.615384,2.763383 1.373205,2.763383l11.073646,0c0.757821,0 1.373205,-1.237062 1.373205,-2.763383zm-16.565814,0l0,-13.713281c0,-1.526322 -0.615384,-2.763383 -1.373205,-2.763383l-11.073646,0c-0.757495,0 -1.373205,1.237062 -1.373205,2.763383l0,13.713281c0,1.526322 0.61571,2.763383 1.373205,2.763383l11.073646,0c0.757821,0 1.373205,-1.237062 1.373205,-2.763383zm0,0"/>
  </g>
 </g>
</svg>