<svg xmlns="http://www.w3.org/2000/svg" class="shield" width="200" height="240" enable-background="new">
  <defs>
    <filter id="a" color-interpolation-filters="sRGB">
      <feBlend mode="darken" in2="BackgroundImage"/>
    </filter>
  </defs>
  <g aria-label="CYBER" style="line-height:1.25" font-weight="700" font-size="40" font-family="Uroob" letter-spacing="5.25" word-spacing="0" fill="#fff">
    <path d="M58.835937 99.039566q0-1.894531-1.542968-1.894531h-3.4375q-.761719 0-1.113282.488281-.351562.488281-.351562 1.191406v15.527348q0 .70312.351562 1.1914.351563.48828 1.113282.48828h3.4375q1.503906 0 1.542968-1.73828v-.89844h3.535157v1.60157q0 1.75781-1.269532 2.92968-1.269531 1.15235-2.988281 1.15235h-4.492187q-1.816407 0-3.242188-1.13281-1.523437-1.19141-1.523437-2.94922V98.180191q0-1.777344 1.523437-2.96875 1.445313-1.152344 3.242188-1.152344h4.492187q1.738281 0 2.988281 1.191407 1.269532 1.191406 1.269532 2.929687v1.796875h-3.535157z" style="-inkscape-font-specification:'Uroob Bold'"/>
    <path d="M85.785156 94.059097q.898438.07813 1.015625.371094.117188.273438.03906.449219-.07813.175781-.546875 1.210937-.449219 1.035157-1.269532 2.890625-.800781 1.835938-1.640625 3.710938-.820312 1.85547-1.640625 3.67187-.800781 1.81641-1.523437 3.47657v9.23828h-3.789063v-9.23828q-.761718-1.64063-1.621093-3.45703-.839844-1.81641-1.699219-3.67188-.859375-1.875-1.71875-3.730468-.859375-1.855468-1.347656-2.910156-.488282-1.054687-.605469-1.230469-.117188-.195312 0-.410156.234375-.449219 1.035156-.449219h2.304688l5.429687 11.328128 5.078125-11.250003z" style="-inkscape-font-specification:'Uroob Bold'"/>
    <path d="M107.75391 103.31691q0 2.08984-1.44532 2.77344 2.03125.58593 2.03125 3.41797v5.33203q0 1.75781-.95703 2.94922-1.03515 1.28906-2.7539 1.28906H93.886719V94.117691h3.554687v.01953h6.601564q1.75781 0 2.77344 1.347657.9375 1.210937.9375 3.027343zm-3.47657-4.609375q0-1.464844-1.67968-1.464844h-5.156254v7.499999h5.585934q.60547 0 .91797-.46875.33203-.46875.33203-1.03516zm-.89843 17.402345q1.48437 0 1.48437-1.54297V109.313q0-1.46484-1.67969-1.46484h-5.742184v8.26172z" style="-inkscape-font-specification:'Uroob Bold'"/>
    <path d="M128.74609 119.07863h-8.4375q-1.8164 0-3.24218-1.13281-1.52344-1.19141-1.52344-2.94922V98.180191q0-1.777344 1.52344-2.96875 1.44531-1.152344 3.24218-1.152344h8.4375v3.085938h-8.20312q-.76172 0-1.11328.488281-.35156.488281-.35156 1.191406v6.035158h8.86718v3.00781h-8.86718v6.48438q0 .70312.35156 1.1914.35156.48828 1.11328.48828h8.20312z" style="-inkscape-font-specification:'Uroob Bold'"/>
    <path d="M151.14453 119.15675h-3.67187l-5.17579-10.82031h-2.79296v10.82031h-3.55469V94.117691h9.64844q1.91406 0 3.26171 1.25 1.38672 1.269531 1.38672 3.203125v5.859374q0 2.79297-2.38281 3.63281-.74219.27344-1.64062.27344zm-4.43359-15.5664v-4.375003q0-1.308593-1.01563-1.894531-.3125-.175781-.72265-.175781h-5.46875v8.124995h6.05468q1.01563 0 1.11328-1.07421.0391-.29297.0391-.60547z" style="-inkscape-font-specification:'Uroob Bold'"/>
  </g>
  <g aria-label="ARCH" style="line-height:1.25" font-weight="400" font-size="30.44174385" font-family="Merriweather" letter-spacing="0" word-spacing="0" fill="#fff" stroke-width=".81540388" enable-background="new">
    <path d="M61.49861464 128.0637831h3.79685361l8.38759463 18.52494538 2.14004452.26847977v1.31554382h-9.11244776v-1.31554382l2.86489764-.26847977-1.62229195-3.97346884H57.87434559l-1.62229195 3.97346884 2.96844906.26847977v1.31554382h-8.18049293v-1.31554382l2.14004452-.26847977zm2.17456166 4.29564105l-.86292056-2.36259905-.82840455 2.41629147-3.48620162 8.6181283h8.80179577z" style="line-height:13.25;-inkscape-font-specification:Merriweather"/>
    <path d="M76.94166818 146.85720825l2.86489878-.26847977v-16.69929705l-2.69231421-.3490184v-1.31554383h4.52170674q.96647197 0 2.62328107-.10739367 1.72584224-.10738485 2.69231421-.10738485 5.07397644 0 7.21402096 1.28868879 2.17456165 1.26184257 2.17456165 4.00031505 0 1.90618697-1.38067425 3.49021055-1.3461571 1.58401477-3.72781933 2.14782052 1.1045394.45641209 2.03649423 1.58401477.96647198 1.10075648 2.34714622 3.0874909 1.07002226 1.50347613 1.62229196 2.20151295.5867857.69804563 1.10453826.77858427l1.34615711.26847977v1.31554382h-4.76332445q-.5522697 0-1.24260682-.91282416-.69033713-.93967038-1.82939366-2.87271237-1.2426057-2.12097431-2.17456053-3.35597067-.89743882-1.26184257-1.79487652-1.61086098-3.69330332 0-4.38364045-.02681094v7.19519081l3.41716848.26847977v1.31554382h-9.97536945zm10.66570657-8.88660806q2.2090788 0 3.48620163-1.12760269 1.27712396-1.12760269 1.27712396-3.35597067 0-1.9598882-1.3116411-2.98009722-1.27712283-1.04706405-4.4526736-1.04706405-1.10453826 0-2.20907766.10739368-.69033712.05371006-.89743883.05371006v8.32280231q.5177537.02681094 2.14004565.02681094z" style="line-height:13.25;-inkscape-font-specification:Merriweather"/>
    <path d="M112.67092046 148.46806923q-3.79685248 0-6.4891667-1.26184257-2.6577982-1.28868878-4.03847245-3.5975954-1.38067311-2.30890662-1.38067311-5.42324373 0-3.00695226 1.62229195-5.31585887 1.62229196-2.30890662 4.4526736-3.5707492 2.83038164-1.28868878 6.3511004-1.28868878 2.6577948 0 6.3856164.6443444l1.13905881.1610861-.3451714 4.83259175h-2.31263247l-.86291716-3.40966309q-.48323088-.3221722-1.69133077-.53695072-1.17356234-.24163356-2.89941025-.24163356-2.2090788 0-3.93492103.9933628-1.72584225.96652541-2.72683136 2.87271238-.96647197 1.90619578-.96647197 4.5641208 0 2.52368515.86292169 4.59096703.86292168 2.06727306 2.62328107 3.30226942 1.76035938 1.20815015 4.34912217 1.20815015 1.82939253 0 2.79586564-.24163356 1.00098798-.24162474 1.69133077-.69803682l1.44970399-2.63107881 2.17456165.21477852-.82840228 3.81238275q-.72485766.02681093-2.14004678.37586462-1.24260342.29532598-2.4161771.45641208-1.1390588.18793231-2.86490331.18793231z" style="line-height:13.25;-inkscape-font-specification:Merriweather"/>
    <path d="M126.66210773 129.88943143l-2.72683362-.3221722v-1.34239003h9.38858941v1.34239004l-2.96844906.3221722v7.22204583h12.14992657v-7.22204584l-2.79586337-.3221722v-1.34239003h9.25051859v1.34239004l-2.72683362.3221722v16.69929704l2.72683362.26847977v1.31554382h-9.28503346v-1.31554382l2.83037824-.26847977v-7.81268898h-12.14992657v7.81268898l3.00296393.26847977v1.31554382h-9.49213403v-1.31554382l2.79586337-.26847977z" style="line-height:13.25;-inkscape-font-specification:Merriweather"/>
  </g>
  <path class="shield" d="M103.8003356 18.07738337c-1.67691066-2.51040472-5.8344584-2.51040472-7.51136906 0-6.79694559 10.1904571-59.9024241 34.09387596-79.30100602 34.09387596-2.49055962 0-6.29089562 2.02419985-6.29089562 4.51475947v85.75066241c0 44.1255723 81.77172054 88.75719455 86.30632511 90.03720328.39690194.10914803 1.69675576.16868332 2.1135028.16868332.41674702 0 3.04622232-.0595353 3.44312425-.16868332 3.7606458-1.06171267 86.74291724-49.00746606 86.74291724-85.5224438V56.6860188c0-2.49055962-3.800336-4.51475947-6.29089562-4.51475947-21.74030333 0-72.61320846-24.21101785-79.21170308-34.09387596zm75.5800504 128.87405732c0 27.24731763-67.84046273 70.23179687-79.37046385 76.24486114C88.74782983 217.4610689 20.6196132 177.522812 20.6196132 142.4366812V60.90310183c29.7676449-2.55009491 65.09191685-20.80758378 79.41015404-33.66720638 13.97094801 12.72070692 49.58297386 31.33540753 79.35061876 33.70689657z" fill="#fff"/>
</svg>
