<svg xmlns="http://www.w3.org/2000/svg" viewBox="-18314 -24067 4000 4000.0001">
  <g fill="#fff">
    <path d="M-15409.82592108-23911.38945296h-1808.34808873l-845.80302816 922.19499398c5.48499455 933.94696528 437.20097637 1625.78891672 799.96698742 2042.2269212 416.04606357 477.94302412 854.81304884 724.35703631 950.4011038 724.35703631 186.47698931 0 1739.4000838-960.1949678 1749.58603798-2766.5839575zm-887.3290487 3492.90096908c-5.8759657 2.7429567-12.1439647 3.91798046-18.4119637 3.91798046-5.87705166 0-12.14505067-1.13601654-17.62901474-3.52601693-229.17806349-95.54903022-1487.1080903-958.6279805-1545.48012906-2482.16894706-.39237417-12.14503807 3.91803444-23.8980338 12.14505066-32.90799404l715.34701915-780.37905827c8.61899405-9.40200258 20.76301423-14.49492799 33.69099008-14.49492799h1606.59408833c12.9280009 0 25.46400129 5.09292541 34.08200212 14.49492799l715.34803853 780.7710218c8.22700037 8.61799671 12.53699678 20.37099244 12.18400271 32.5160305-30.20400443 810.93598036-399.9840248 1415.41592753-704.77104029 1779.35792696-346.35101468 413.69504779-702.85003342 640.5219946-843.0990438 702.41905658z"/>
    <path d="M-17211.43000941-23336.1139409c.79267509 25.21679327 4.75605054 44.12938823 8.71942599 42.55333865 3.17070036-2.36407437 5.54872563 10.24432227 3.17070036 27.58086765-1.58535018 17.33654538.79267509 29.94494202 3.96337545 27.58086765 3.96337545-2.36407437 6.34140072 10.24432227 3.96337545 27.58086765-1.58535018 17.33654538.79267509 29.94494202 4.75605054 27.58086765 3.17070036-2.36407437 5.54872563 7.8802479 3.17070036 23.6407437-1.58535018 15.7604958 0 26.00481807 3.96337545 23.6407437 4.75605054-2.36407437 6.34140072 7.8802479 3.96337545 23.6407437-1.58535018 15.7604958-.79267509 26.79284286 2.37802527 25.21679328 7.13407581-4.72814874 16.64617689 96.92704917 10.30477617 107.95939623-3.96337545 5.51617353-1.58535018 6.30419832 4.75605054 2.36407437 7.13407581-4.72814874 8.71942599 1.57604958 6.34140072 26.00481807-1.58535018 17.33654538-.79267509 30.73296681 2.37802527 29.15691723 7.13407581-4.72814874 24.57292779 144.20853657 18.23152707 154.45285884-3.96337545 6.30419832-2.37802527 7.09222311 4.75605054 3.15209916 7.13407581-4.72814874 8.71942599 1.57604958 6.34140072 26.00481807-1.58535018 17.33654538-.79267509 30.73296681 2.37802527 28.36889244 6.34140072-3.15209916 16.64617689 71.7102559 18.23152707 128.44804077 0 22.06469412 3.17070036 38.61321471 7.13407581 36.24914034 3.17070036-1.57604958 5.54872563 6.30419832 5.54872563 18.91259496 0 11.82037185 3.17070036 33.88506597 7.13407581 48.0695122 4.75605054 14.18444621 4.75605054 23.6407437 2.37802527 22.06469411-3.17070036-2.36407437-6.34140072 3.15209916-6.34140072 11.03234706 0 7.8802479 3.17070036 12.60839664 7.9267509 10.24432227 3.96337545-3.15209916 5.54872563 10.24432227 3.17070036 33.09704118-3.17070036 22.85271891-1.58535018 33.09704118 2.37802527 26.79284286 4.75605054-7.8802479 7.13407581-3.15209916 7.13407581 14.18444622 0 13.39642143 3.17070036 27.58086765 7.9267509 29.94494202 3.96337545 2.36407437 7.9267509 8.6682727 7.9267509 12.60839664 0 4.72814874-4.75605054 5.51617353-9.51210108 2.36407437-7.9267509-4.72814874-7.9267509-3.94012395-.79267509 6.30419832 5.54872563 6.30419832 7.13407581 14.97247101 3.96337545 18.12457017-3.17070036 3.94012395-.79267509 3.94012395 5.54872563 0 8.71942599-4.72814874 10.30477617-2.36407437 7.13407581 10.24432227-3.17070036 11.03234706-1.58535018 15.7604958 3.17070036 12.60839664 5.54872563-3.94012395 7.13407581 1.57604958 4.75605054 14.97247101-2.37802527 12.60839664-.79267509 18.91259496 3.96337545 15.7604958 4.75605054-3.15209916 6.34140072 3.15209916 3.96337545 16.5485206-2.37802527 11.82037184-2.37802527 18.91259495 0 16.54852058 3.96337545-3.94012395 17.43885198 16.5485206 34.08502887 51.22161135 4.75605054 11.03234706 11.89012635 26.00481807 15.8535018 33.09704118 3.96337545 8.6682727 3.96337545 22.06469412-1.58535018 35.46111555-7.13407581 18.91259496-5.54872563 23.6407437 11.89012635 37.82518992 11.09745126 9.45629748 20.60955234 19.70061975 20.60955234 24.4287685 0 4.72814873-15.06082671 21.27666932-34.08502887 37.03716512-33.29235378 27.58086765-37.25572923 37.82518992-37.25572923 87.4707517-.79267509 12.60839663-7.9267509 35.46111554-16.64617689 49.64556176-11.89012635 18.12457017-15.8535018 36.24914034-13.47547653 56.73778488 1.58535018 17.33654538-.79267509 29.15691723-3.96337545 26.79284286-3.96337545-2.36407437-3.17070036 3.15209916 1.58535018 11.03234706 4.75605054 8.6682727 6.34140072 18.12457017 3.96337545 20.48864454-2.37802527 2.36407437 0 6.30419832 5.54872563 10.24432227 6.34140072 3.94012395 7.9267509 2.36407437 3.17070036-5.51617353-4.75605054-8.66827269-3.96337545-9.45629748 3.96337545-1.57604958 6.34140072 5.51617353 11.09745126 22.06469412 11.09745126 37.03716513.79267509 14.97247101 3.96337545 25.21679328 7.9267509 22.06469412 3.96337545-2.36407437 4.75605054 3.94012395 2.37802527 14.97247101-3.17070036 10.24432227-5.54872563 22.06469412-5.54872563 25.21679328 0 3.94012395-3.17070036 4.72814874-6.34140072 2.36407437-3.17070036-1.57604958-7.13407581 3.94012395-7.13407581 13.39642143-1.58535018 14.18444622 0 14.97247101 6.34140072 5.51617353 7.13407581-9.45629748 7.9267509-8.66827269 3.17070036 3.94012395-10.30477617 32.3090164-18.23152707 84.31865253-13.47547653 100.07914833 3.17070036 12.60839664 1.58535018 14.97247101-7.13407581 9.45629748-7.13407581-3.94012395-6.34140072 0 3.17070036 12.60839664 24.57292779 34.67309076 64.20668229 130.81211514 74.51145846 181.2457017 10.30477617 52.79766093 10.30477617 52.79766093 131.58406494 59.10185925 61.82865702 3.15209916 122.86463895 7.09222311 136.34011548 7.8802479 13.47547653.7880248 66.58470756 4.72814874 118.9012635 7.09222311 52.31655594 3.15209916 107.80381224 7.09222311 122.86463895 8.6682727 15.06082671 1.57604957 70.54808301 5.51617352 122.86463895 7.8802479 52.31655594 2.36407436 137.92547359 7.8802479 190.24202953 11.82037184 82.43820936 6.30419832 213.22960713 14.18444622 317.07004392 19.70061975 21.40222743.7880248 30.91432851 4.72814874 29.32897833 11.82037185-1.58535018 5.51617353 1.58535018 20.48864454 7.13407581 33.09704118 7.13407581 17.33654538 7.13407581 24.4287685-1.58535018 35.46111555-7.9267509 8.6682727-7.9267509 11.03234706-.79267509 7.09222311 5.54872563-3.15209916 9.51210108-1.57604958 9.51210108 5.51617353s9.51210108 11.03234706 27.74362815 11.03234706c22.98757761 0 27.74362815-3.15209916 28.53630324-16.54852059 0-9.45629748 3.17070036-34.67309076 6.34140072-57.52580967 3.96337545-26.00481807 3.17070036-39.4012395-1.58535018-36.24914034-4.75605054 3.15209916-6.34140072-2.36407437-3.96337545-11.82037185 3.17070036-9.45629748 1.58535018-15.7604958-2.37802527-12.60839664-3.96337545 2.36407437-7.1340758-3.15209916-7.1340758-12.60839664 0-11.03234706 3.17070035-14.972471 10.30477616-11.03234706 6.34140072 4.72814874 6.34140072 2.36407437-.79267509-7.0922231-17.43885198-21.27666934-2.37802527-50.43358657 24.5729278-45.70543783 3.17070035 0 5.54872562-4.72814874 5.54872562-11.03234706 0-7.0922231 7.9267509-11.82037185 20.60955234-11.82037185 11.09745126 0 18.23152707 3.15209916 15.8535018 6.30419832-1.58535018 3.15209916 3.96337545 7.09222311 13.47547653 7.09222311 9.51210108.7880248 18.23152707 5.51617353 19.81687725 10.24432227 1.58535018 3.94012395 6.34140072 5.51617353 10.30477617 3.15209916 4.75605054-2.36407437 11.89012635-.78802479 17.43885198 3.15209916 16.6461769 13.39642143 87.1942599 25.21679328 98.29171116 15.7604958 5.54872563-4.72814874 7.9267509-11.82037185 4.75605054-15.7604958-9.51210108-16.54852059-7.9267509-63.0419832 3.17070036-74.07433026 10.30477617-9.45629748 9.51210108-11.03234706-.79267509-11.03234706-18.23152707 0-15.8535018-10.24432227 7.13407581-31.5209916 15.06082671-14.18444622 17.43885198-20.48864454 10.30477617-25.21679328-7.9267509-4.72814874-7.9267509-6.30419832 0-6.30419832 5.54872563 0 7.9267509-3.94012395 5.54872563-7.8802479-13.47547653-22.06469412-11.09745126-61.46593362 5.54872563-96.13902438 17.43885198-35.46111555 45.97515522-62.2539584 34.87770396-32.30901639-4.75605054 11.03234706-3.17070036 11.82037185 3.96337545 4.72814874 9.51210108-9.45629748 2.37802527-29.15691723-8.71942599-22.06469412-3.96337545 2.36407437-5.54872563-11.03234706-3.96337545-29.15691723 1.58535018-18.91259496 7.13407581-34.67309076 11.89012635-36.24914034 6.34140072-2.36407437 6.34140072-6.30419832 0-13.39642143-10.30477617-11.82037185 3.17070036-23.6407437 26.95094514-23.6407437 10.30477617 0 15.8535018-6.30419832 17.43885198-22.06469412.79267509-11.82037185-1.58535018-21.27666933-5.54872563-21.27666933-4.75605054 0-5.54872563-3.94012395-2.37802527-8.66827269 3.17070036-6.30419832 7.1340758-5.51617353 11.89012635 1.57604958 3.96337545 6.30419832 7.1340758 7.09222311 7.1340758 3.15209916 0-4.72814874-3.96337544-12.60839664-8.71942598-17.33654538-11.09745126-11.03234706 19.81687725-33.09704118 43.59712995-30.7329668 27.74362815 3.15209915 25.36560288-26.00481808-3.17070036-35.46111556-27.74362815-10.24432227-36.46305414-29.15691723-19.81687725-45.70543782 8.71942599-8.66827269 11.89012635-9.45629748 11.89012635-2.36407437 0 5.51617353 3.17070036 8.6682727 7.1340758 6.30419832 3.96337546-2.36407437 16.6461769.7880248 29.32897834 7.09222311 24.57292779 12.60839664 44.38980504 6.30419832 24.57292779-7.8802479-18.23152707-12.60839664-16.6461769-25.21679328 2.37802527-31.5209916 8.71942599-2.36407437 15.0608267-8.66827269 13.47547653-13.39642143-3.17070036-18.12457017-25.36560288-37.82518992-42.80445486-37.82518992-25.36560288 0-44.38980504-22.06469412-40.4264296-48.06951219 2.37802528-11.82037185.7926751-20.48864454-3.17070035-18.12457017-3.17070036 2.36407437-6.34140072-4.72814874-6.34140072-15.7604958s3.96337545-22.06469412 7.9267509-24.42876849c4.75605054-3.15209916 1.58535018-10.24432227-7.13407581-18.12457017-8.719426-7.0922231-17.43885198-23.6407437-19.02420216-35.46111555-3.17070036-26.79284286-40.42642167-67.77013194-70.54807509-78.0144542-26.15827797-9.45629749-32.49967869-28.36889245-33.29235378-97.71507397-.79267509-33.09704118-3.96337545-47.2814874-9.51210108-44.91741303-7.9267509 3.15209916-32.49967869-48.06951219-29.32897833-60.67790883 6.34140072-29.15691723 5.54872563-35.46111555-9.51210108-35.46111555-8.71942599 0-15.0608267-4.72814874-13.47547653-10.24432227.7926751-6.30419832-1.58535018-8.66827269-5.54872563-5.51617353-16.64617689 10.24432227-72.13343319-28.36889244-103.0477617-71.71025589-17.43885198-24.42876849-30.12165342-47.2814874-28.53630324-50.43358656 2.37802527-3.15209916-2.37802527-5.51617353-10.30477617-4.72814874-10.30477617.7880248-14.26815162-6.30419832-15.8535018-29.94494202-1.58535018-17.33654538-8.71942599-35.46111555-15.0608267-40.18926429-7.13407582-5.51617353-10.30477618-12.60839664-7.9267509-17.33654538 2.37802526-3.94012395-11.09745127-15.7604958-30.91432852-25.21679328-19.02420216-9.45629748-33.29235378-21.27666933-30.9143285-25.21679328 3.17070035-3.94012395 0-4.72814874-6.34140073-2.36407437-13.47547653 4.72814874-40.42642959-40.97728908-31.7070036-54.3737105 2.37802527-4.72814875.7926751-5.51617354-3.96337545-2.36407438-5.54872563 3.15209916-9.51210108 1.57604958-9.51210108-3.15209916 0-11.03234706-37.25572923-45.70543782-65.79203247-59.88988404-12.68280144-7.0922231-19.81687725-15.7604958-16.64617689-20.48864454 3.17070036-5.51617353 2.37802527-6.30419832-3.17070036-3.15209916-10.30477617 6.30419832-50.73120576-26.00481807-44.38980504-36.24914034 2.37802527-3.94012395.7926751-5.51617353-3.17070036-4.72814874-4.75605054 1.57604958-8.71942599-.78802479-9.51210108-5.51617353-.79267509-4.72814874-7.9267509-18.91259496-16.64617689-32.30901639-7.9267509-13.39642143-11.89012635-26.79284286-8.71942599-29.94494202 3.17070036-3.15209916 2.37802527-5.51617353-2.37802527-4.72814874-19.02421008 3.94012395-28.53631116-.78802479-26.95096098-14.18444622 2.37802527-16.54852059-7.13407581-40.18926429-22.98757761-58.31383446-6.34140072-7.8802479-9.51210108-18.91259496-6.34140072-26.00481807 2.37802527-7.0922231 1.58535018-10.24432227-3.17070036-7.8802479-9.51210108 5.51617353-26.15827797-26.00481807-20.60955234-39.4012395 4.75605054-12.60839664-19.02420216-22.8527189-54.69458121-23.6407437-15.06082671 0-22.98757761-3.94012395-21.40222743-10.24432227.79267509-6.30419832-1.58535018-8.66827269-5.54872563-6.30419832s-17.43885198-5.51617353-30.12165342-18.91259496c-11.89012635-12.60839664-24.57293572-23.6407437-27.74363608-23.6407437-15.06082671 0-68.96273283-44.91741303-69.75540792-57.52580967 0-26.79284286 21.40222743-64.61803278 53.10923103-92.98692522 17.43885198-15.7604958 34.0850368-33.09704118 37.25573716-37.82518992 3.96337545-6.30419832-126.03534724-8.66827269-497.79996445-8.66827269h-503.34868215z"/>
  </g>
  <path fill="none" stroke="#000" stroke-width="10" d="M-142043.76-62963.023V-31261.7h-1791.04v-32059.53h537.31"/>
</svg>
