<svg xmlns="http://www.w3.org/2000/svg" xmlns:xlink="http://www.w3.org/1999/xlink" viewBox="354 381 200 220">
  <g id="Georgia" fill="#D1D1D1" stroke="#F7F7F7" stroke-width="1">
    <path id="Rabun" d="M454.26353 387.02986l-.97939 3.67467-3.5718 2.53284-2.70327 4.43521-.77587 3.49176-11.79583-3.99284 3.197-8.26152 2.4813-.28567 14.14786-1.59445"/>
    <path id="Towns" d="M423.00651 390.38925l14.62786-1.47927-3.197 8.26152-1.03111 1.14207-3.71448.66956-.11119-1.17773-1.24154-3.30155-1.08488-.68473-1.1056.03473-2.25143-1.4056-1.15598-1.2091.26535-.8499"/>
    <path id="Mitchell" d="M434.35403 555.94469l1.1729 17.07233-4.49915.32018-10.3342.8098-5.23088.41476.11815-1.94957.66622-1.57076.23167-.3301 5.04996-6.60191 4.95426-3.5147 2.22869-4.0144 5.64238-.63563"/>
    <path id="Baker" d="M417.2617 557.65605l11.44995-1.07573-2.22869 4.0144-4.95426 3.5147-5.04996 6.60191-.23167.3301-.66622 1.57076-.11815 1.94957-1.37864.06981-4.57297-8.05955-.45614-8.16483 8.20675-.75114"/>
    <path id="Miller" d="M409.51109 566.57202l4.57297 8.05955-7.45156 1.03043-7.64173.41393-.43916-8.55141 8.45765-.44692 2.49691-.39356.00492-.11202"/>
    <path id="Early" d="M401.59936 555.81753l7.45559 2.58966.45614 8.16483-.00492.11202-2.49691.39356-8.45765.44692.43916 8.55141-3.95962.15201-.38919-.9474-.27296-.5441-1.79148-2.15285-.29262-.09609-.34323-.01507-.33466-.21016-.36327-.96075-.4077-3.33012.32755-1.19467.47695-1.21708.92728-9.91046.79628 1.48654.9003-.05824.77673-.21205 1.10999-.38206 5.44824-.66585"/>
    <path id="Seminole" d="M398.99077 576.07593l7.64173-.41393-.77231 1.67832.41091 6.96829-.41082 2.34939-1.34354 2.23968-1.6088.94296-.62367 1.17807-.0936.73073.38195.94708-.05058-.00222-6.472-13.04064-1.01889-3.42572 3.95962-.15201"/>
    <path id="Decatur" d="M420.69358 574.147l1.2474 18.09642-19.36836.4531-.38195-.94708.0936-.73073.62367-1.17807 1.6088-.94296 1.34354-2.23968.41082-2.34939-.41091-6.96829.77231-1.67832 7.45156-1.03043 1.37864-.06981 5.23088-.41476"/>
    <path id="Grady" d="M431.02778 573.3372l.29046 4.59919.5331 1.29761.50539.69187.76123.80083.7535 11.20413-7.92595.20961-4.00453.10298-1.2474-18.09642 10.3342-.8098"/>
    <path id="Thomas" d="M435.52693 573.01702l10.7749.94349 1.22024 17.64273-10.58499.25581-3.06562.07178-.7535-11.20413-.76123-.80083-.50539-.69187-.5331-1.29761-.29046-4.59919 4.49915-.32018"/>
    <path id="Brooks" d="M456.71169 573.32417l3.17294 9.3592-1.08686 1.09257-1.26711 2.39506-.03636.16856 1.41631 2.28839.62547.51253 3.51335 2.0981-10.21931.25375-5.30805.11091-1.22024-17.64273 6.26064-2.43293 4.14922 1.79659"/>
    <path id="Colquitt" d="M454.02571 559.71486l-1.46324 11.81272-6.26064 2.43293-10.7749-.94349-.82372-11.99635 13.70035-.96614 5.62215-.33967"/>
    <path id="Cook" d="M457.04109 558.39561l-.06438 1.46686.22448.74108.24021.3834 2.09048 1.60849.62212.25897 2.9494 7.11228.80135 2.93833-7.19306.41915-4.14922-1.79659 1.46324-11.81272 3.01538-1.31925"/>
    <path id="Lanier" d="M473.08896 564.72891l3.00364-.3098 1.36286 14.64084-1.82565 1.09998-.39576-2.52961-.96201-1.91734-5.44576.36191-1.04009-3.43752-.12054-1.37723.89516-4.39511 5.04789-.45177.03683-.17937-.20639-.82355-.35018-.68143"/>
    <path id="Lowndes" d="M463.90475 572.90502l3.88144-.26765 1.04009 3.43752 5.44576-.36191.96201 1.91734.39576 2.52961-3.7064 10.87807-6.94336.17309-1.93062.02749-3.51335-2.0981-.62547-.51253-1.41631-2.28839.03636-.16856 1.26711-2.39506 1.08686-1.09257-3.17294-9.3592 7.19306-.41915"/>
    <path id="Echols" d="M477.45546 579.05995l5.12123 1.17681.42319.74979.51379 1.65513 1.08588 1.32188.55752.32854 1.04545.34634 1.49877-.003.80339-.07696 1.58043.03316 2.61588.27771.68838.31619.3869.42241.13389.24841.23924 4.61141-4.24802.12487-17.97797.44536 3.7064-10.87807 1.82565-1.09998"/>
    <path id="Clinch" d="M476.0926 564.41911l11.88856-1.08908 3.29896 6.24073 1.30858 1.44386 2.41144 1.96647 3.99452 6.31107.58056 5.41193.58456 4.16684.6221 1.41373-1.63452.0441-4.99796.13901-.23924-4.61141-.13389-.24841-.3869-.42241-.68838-.31619-2.61588-.27771-1.58043-.03316-.80339.07696-1.49877.003-1.04545-.34634-.55752-.32854-1.08588-1.32188-.51379-1.65513-.42319-.74979-5.12123-1.17681-1.36286-14.64084"/>
    <path id="Atkinson" d="M488.86592 554.80051l-.88476 8.52952-11.88856 1.08908-3.00364.3098-.28636-1.97094-.79327-4.27736-1.74871-1.47766-1.76406-2.0358-.05978-.12208-.04902-.78043 7.20113-.52016 5.21667 1.31132.58788.6267 7.47248-.68199"/>
    <path id="Berrien" d="M467.93444 551.69179l.45332 2.37285.04902.78043.05978.12208 1.76406 2.0358 1.74871 1.47766.79327 4.27736.28636 1.97094.35018.68143.20639.82355-.03683.17937-5.04789.45177-.89516 4.39511.12054 1.37723-3.88144.26765-.80135-2.93833-2.9494-7.11228-.62212-.25897-2.09048-1.60849-.24021-.3834-.22448-.74108.06438-1.46686 3.27328-6.20568 7.62007-.49814"/>
    <path id="Irwin" d="M472.89006 541.79524l-4.95562 9.89655-7.62007.49814-6.89808-4.90004 1.20366-7.79515 3.26156-.2478 2.0849 3.38562 2.44575 1.01956 3.51963-.18942 2.29437-.97442 4.6639-.69304"/>
    <path id="Tift" d="M447.62941 548.99068l5.78688-1.70079 6.89808 4.90004-3.27328 6.20568-3.01538 1.31925-5.62215.33967-.77415-11.06385"/>
    <path id="Worth" d="M435.0904 536.93986l5.55821 1.61226.17196.12339.21195 1.85185.56885 6.42137 3.10855-.22558.33799.13431 1.1508.83239 1.4307 1.30083.77415 11.06385-13.70035.96614-.34918-5.07598-1.60811-9.54753 2.34448-9.4573"/>
    <path id="Dougherty" d="M421.8145 548.607l10.93142-2.20984 1.60811 9.54753-5.64238.63563-11.44995 1.07573-1.46322-8.56015 6.01602-.4889"/>
    <path id="Calhoun" d="M411.97985 549.41699l3.81863-.32109 1.46322 8.56015-8.20675.75114-7.45559-2.58966-.32903-5.53482 10.70952-.86572"/>
    <path id="Clay" d="M388.06334 543.71934l7.11594-.39357.87322 7.1305 5.21783-.17356.32903 5.53482-5.44824.66585-1.10999.38206-.77673.21205-.9003.05824-.79628-1.48654-3.85798-10.98926-.6465-.94059"/>
    <path id="Quitman" d="M390.34141 533.79577l6.36778 2.54916-1.52991 6.98084-7.11594.39357 2.27807-9.92357"/>
    <path id="Randolph" d="M406.62181 535.82071l2.20825-.16734.38109 6.90543 1.3595.61351 1.63249 3.38389.06014 1.59902-.17019.90836-.11324.35341-10.70952.86572-5.21673.14845-.87432-7.10539 1.52991-6.98084 9.91262-.52422"/>
    <path id="Terrell" d="M421.27749 545.41961l.53701 3.18739-6.01602.4889-3.81863.32109.11324-.35341.17019-.90836-.06014-1.59902-1.63249-3.38389-1.3595-.61351-.38109-6.90543 5.95694-2.68879 4.50221 4.06369 1.98828 8.39134z"/>
    <path id="Lee" d="M435.51593 533.92504l-.42553 3.01482-2.34448 9.4573-10.93142 2.20984-.53701-3.18739-1.98828-8.39134-.15108-2.00122 16.3778-1.10201"/>
    <path id="Crisp" d="M433.53132 528.50218l13.8383-1.05781.58858 8.11635-7.30959 2.9914-5.55821-1.61226.42553-3.01482-1.98461-5.42286"/>
    <path id="Turner" d="M447.9582 535.56072l5.22622-.14347 1.43553 4.07749-1.20366 7.79515-5.78688 1.70079-1.4307-1.30083-1.1508-.83239-.33799-.13431-3.10855.22558-.56885-6.42137-.21195-1.85185-.17196-.12339 7.30959-2.9914"/>
    <path id="Ben_Hill" d="M453.18442 535.41725l11.90694-1.09553 7.44589 2.48065.35281 4.99287-4.6639.69304-2.29437.97442-3.51963.18942-2.44575-1.01956-2.0849-3.38562-3.26156.2478-1.43553-4.07749"/>
    <path id="Coffee" d="M472.53725 536.80237l6.11903-2.25815.62025 6.73494 8.258-.84662.47237 5.32029 1.27529-.10692.3582 4.12794-.77447 5.02666-7.47248.68199-.58788-.6267-5.21667-1.31132-7.20113.52016-.45332-2.37285 4.95562-9.89655-.35281-4.99287"/>
    <path id="Bacon" d="M491.53221 538.25867l2.95407 1.80929 1.81128 1.04239 2.59303.79797 4.41459 2.43087.37526.44.31029.6833-.50931.05729-2.2225 1.97667.1112 1.17773-1.57214 1.92195-2.93682.93175-7.22077-1.75403-.3582-4.12794-1.27529.10692-.47237-5.32029 3.99768-2.17387"/>
    <path id="Wayne" d="M509.60392 530.97578l3.31083 1.434 13.26859 10.35614 1.9724 3.80421-3.61209 6.17271-1.38194-.67967-1.55226-.59301-1.8891.64831-2.85394.69284-4.36542-.49927-.41052-.29675-4.10989-4.17677-1.45485-14.02949 1.58849-2.37736 1.4897-.45589"/>
    <path id="Pierce" d="M503.99073 545.46249l3.98985 2.37603 4.10989 4.17677 2.22101 2.84136-.13818 1.00391-.54957.5623-6.72238 4.1285-.11562-.00508-3.64198-.65215-6.28259-8.36625 2.93682-.93175 1.57214-1.92195-.1112-1.17773 2.2225-1.97667.50931-.05729"/>
    <path id="Brantley" d="M524.54365 552.74284l-.59754 7.59369-2.31942 3.11269-2.56412.68747-.71519.29441-.26296.38302-.27426 1.87757-5.09153-.78093-.48039 3.11014-2.02825.18971-7.06624-9.31648 3.64198.65215.11562.00508 6.72238-4.1285.54957-.5623.13818-1.00391-2.22101-2.84136.41052.29675 4.36542.49927 2.85394-.69284 1.8891-.64831 1.55226.59301 1.38194.67967"/>
    <path id="Ware" d="M489.64039 549.77385l7.22077 1.75403 6.28259 8.36625 7.06624 9.31648-11.30288 1.0243.82509 10.15026 9.6771-.76622 1.15042.18079-1.57968 10.34156-8.19816.14336-.6221-1.41373-.58456-4.16684-.58056-5.41193-3.99452-6.31107-2.41144-1.96647-1.30858-1.44386-3.29896-6.24073.88476-8.52952.77447-5.02666"/>
    <path id="Charlton" d="M517.81016 566.69169l2.28265 10.34455-4.46871 2.34868-.56773 5.01762.13486.96881.58003.97028 1.15109 1.65051.4611 1.45372-.1078 3.11564-.35301 3.17727-.35116 3.21717-4.59824.68146-.26137-.06577-.79882-.68665-.70078-1.10587-.34816-1.05781-.88407-6.58 1.57968-10.34156-1.15042-.18079-9.6771.76622-.82509-10.15026 11.30288-1.0243 2.02825-.18971.48039-3.11014 5.09153.78093"/>
    <path id="Camden" d="M537.31445 566.1106l1.74195 14.1688-.61722.04168-3.40688.25954-2.4834.00322-4.66318-.72594-6.14855-1.6056-1.64436-1.21606-2.28265-10.34455.27426-1.87757.26296-.38302.71519-.29441 2.56412-.68747 2.31942-3.11269.12388.55929.11867.18258 3.16157 1.12338 1.87179.15818 8.09243 3.75064"/>
    <path id="Glynn" d="M542.93877 552.44249l-5.62432 13.66811-8.09243-3.75064-1.87179-.15818-3.16157-1.12338-.11867-.18258-.12388-.55929.59754-7.59369 3.61209-6.17271.02241.14941 2.04316 2.10958 2.64841 1.76329 5.49204 1.30531 3.91672.66059.66029-.11582"/>
    <path id="McIntosh" d="M532.13923 534.57479l1.26988.42859 1.87708 1.43986 1.00101.28646 2.90359-1.08162 2.14228.18091 1.12536.42224.70031.37462 1.25356 1.13014.14832.33231-.00226 1.28859-1.61959 13.0656-.66029.11582-3.91672-.66059-5.49204-1.30531-2.64841-1.76329-2.04316-2.10958-.02241-.14941-1.9724-3.80421 5.95589-8.19113"/>
    <path id="Heard" d="M387.40032 466.61494l3.64477 9.16632-11.22846 5.26648-3.17742-13.79377 10.76111-.63903"/>
    <path id="Haralson" d="M371.54834 445.34361l4.49846-.22248 2.16973-.44415 6.25302-.36265.77081 4.29446-.27756 2.61226-2.86725 2.89317-6.02431 2.65687-1.86419.08108-2.65871-11.50856"/>
    <path id="Polk" d="M383.94778 435.33574l4.79735.30829-1.68767 6.28612-2.73936.14403.15145 2.24015-6.25302.36265-2.16973.44415-4.49846.22248-.67352-2.88206-1.24757-5.39053 6.28194-.36138-.0344-.78343 8.07299-.59047"/>
    <path id="Floyd" d="M381.4598 412.43191l3.06801 8.94555.16722 2.12861-.26225 6.30525-.78389.04522.29889 5.4792-8.07299.59047.0344.78343-6.28194.36138-2.19188-9.52607 2.86348-.16754 2.2117-4.36992 2.05184-1.05746 3.14516-2.13163.35208-.92936 1.92616-6.35891 1.47401-.09822"/>
    <path id="Chattooga" d="M379.98579 412.53013l-1.92616 6.35891-.35208.92936-3.14516 2.13163-2.05184 1.05746-2.2117 4.36992-2.86348.16754-2.71799-10.98266-.69797-2.9845 15.96638-1.04766"/>
    <path id="Whitfield" d="M383.61827 393.43883l6.30067-.45832-.90101 2.96137-2.84421 10.28606-.18725 1.54473 1.22082 2.0409-5.15159.9178-.33965-4.55067-4.49787.29129.06771-.38798.70154-1.88052.53276-2.48884 2.41236-.61087.97326-1.80346 1.663-5.14693-.06695-.70158.11641-.01298"/>
    <path id="Catoosa" d="M372.70862 394.32834l10.79324-.87653.06695.70158-1.663 5.14693-.97326 1.80346-2.41236.61087-.53276 2.48884-5.27881-9.87515"/>
    <path id="Walker" d="M372.70862 394.32834l5.27881 9.87515-.70154 1.88052-.06771.38798 4.49787-.29129.33965 4.55067-.5959 1.70054-1.47401.09822-15.96638 1.04766-.38498-1.62052 1.51463-2.26114 1.24951-4.30354-.12871-1.76853 1.09345-5.28416 1.61259-3.66859 3.73272-.34297"/>
    <path id="Dade" d="M368.9759 394.67131l-1.61259 3.66859-1.09345 5.28416.12871 1.76853-1.24951 4.30354-1.51463 2.26114-2.58856-10.9625-1.2168-5.76202 5.03762-.30017 4.10921-.26127"/>
    <path id="Long" d="M517.4992 521.32046l.9406 1.25033 1.98782 4.52527.08997.50713 5.3823 4.54754 5.91354 2.42424.3258-.00018-5.95589 8.19113-13.26859-10.35614 4.58445-11.08932"/>
    <path id="Appling" d="M502.2589 527.68146l7.34502 3.29432-1.4897.45589-1.58849 2.37736 1.45485 14.02949-3.98985-2.37603-.31029-.6833-.37526-.44-4.41459-2.43087-2.59303-.79797-1.81128-1.04239-2.95407-1.80929-.53888-5.94947 3.50349-.31682-.43131-4.68862-.1649-1.27421 8.35829 1.65191"/>
    <path id="Jeff_Davis" d="M493.90061 526.02955l.1649 1.27421.43131 4.68862-3.50349.31682.53888 5.94947-3.99768 2.17387-8.258.84662-.62025-6.73494 7.04607-5.48262 3.83514-2.26426 2.4022-.79231 1.96092.02452"/>
    <path id="Stewart" d="M405.39998 521.26569l.37515-.0523.37577.3459.19448 2.66193.12218 3.15469-.16319 3.38832.31744 5.05648-9.91262.52422-6.36778-2.54916.04448-3.48765 4.60148-8.17816 10.41261-.86427"/>
    <path id="Webster" d="M405.77513 521.21339l1.11488-.0814 3.15284 2.47686.80057 1.05956 1.76713.64589 2.06229-.14116.11416 7.79144-5.95694 2.68879-2.20825.16734-.31744-5.05648.16319-3.38832-.12218-3.15469-.19448-2.66193-.37577-.3459"/>
    <path id="Sumter" d="M424.1185 519.94786l6.2515 2.22913 3.16132 6.32519 1.98461 5.42286-16.3778 1.10201.15108 2.00122-4.50221-4.06369-.11416-7.79144-.06441-1.50148 9.51007-3.7238"/>
    <path id="Wilcox" d="M457.73065 522.88914l6.02988 9.09363 1.33083 2.33895-11.90694 1.09553-5.22622.14347-.58858-8.11635-.32659-4.1881 4.64039-.40448 2.10801-.52287.7253-.44238 1.63674-.09468.42927.11658 1.14791.9807"/>
    <path id="Telfair" d="M473.66699 520.05192l12.03536 9.00968-7.04607 5.48262-6.11903 2.25815-7.44589-2.48065-1.33083-2.33895 9.90646-11.93085"/>
    <path id="Wheeler" d="M480.95935 511.18461l2.64132.27522.35892.07003.28457.93919 1.17936 4.71785.19111 2.49165 1.00555 3.7292.37341.72951.16404.30403 2.37986 2.35605-3.83514 2.26426-12.03536-9.00968 1.42004-2.99289 5.87232-5.87442"/>
    <path id="Dodge" d="M456.6683 515.17553l7.48639-7.76194 6.98253 12.29563 3.94981-2.65019-1.42004 2.99289-9.90646 11.93085-6.02988-9.09363 1.02259-1.03023.13213-.37068.34145-2.17145-3.54284-2.9935.98432-1.14775"/>
    <path id="Pulaski" d="M456.6683 515.17553l-.98432 1.14775 3.54284 2.9935-.34145 2.17145-.13213.37068-1.02259 1.03023-1.14791-.9807-.42927-.11658-1.63674.09468-.7253.44238-2.10801.52287-4.64039.40448-.97055-7.90869 4.12966-5.67577 6.46616 5.50372"/>
    <path id="Dooly" d="M446.07248 515.34758l.97055 7.90869.32659 4.1881-13.8383 1.05781-3.16132-6.32519 6.56503-6.1517 9.13745-.67771"/>
    <path id="Macon" d="M429.46059 506.52437l6.86 1.2314.61444 8.26952-6.56503 6.1517-6.2515-2.22913-3.38544-6.41467 7.29939-7.62535 1.42814.61653"/>
    <path id="Schley" d="M416.37987 512.67246l4.35319.86073 3.38544 6.41467-9.51007 3.7238-.20908-3.07162.58433-2.17889.71703-.99659-.51491-5.42351 1.19407.67141zm0 0"/>
    <path id="Marion" d="M405.1744 507.10553l7.43651-1.84195 2.57489 6.73747.51491 5.42351-.71703.99659-.58433 2.17889.20908 3.07162.06441 1.50148-2.06229.14116-1.76713-.64589-.80057-1.05956-3.15284-2.47686-1.11488.0814-.37515.0523-.22558-14.16016"/>
    <path id="Chattahoochee" d="M405.1744 507.10553l.22558 14.16016-10.41261.86427.09979-.12956.38955-1.45258-.35612-.79391-.92583-.84426-2.55628-.81083-.23362-.28537-.06582-.39747.51011-1.64277 4.12216-1.95845 4.33495-1.03329 2.68848-4.75802 2.17966-.91792"/>
    <path id="Muscogee" d="M387.49407 504.9757l6.85913-.48084.08076 1.12933 8.31807-.64851.24271 3.04777-2.68848 4.75802-4.33495 1.03329-4.12216 1.95845-.80163-6.47863-3.55345-4.31888"/>
    <path id="Taylor" d="M418.08714 496.12472l3.47756 2.4187 8.38805 6.8297-1.9203.53472-7.29939 7.62535-4.35319-.86073-1.19407-.67141-2.57489-6.73747 5.47623-9.13886"/>
    <path id="Talbot" d="M409.01493 490.53197l.35271-.11846.83293.23927 2.56309 1.81025.58655.82211.44259.96785.08249.34751.34548.2939 1.90812.81496 1.95825.41536-5.47623 9.13886-7.43651 1.84195-2.17966.91792-.24271-3.04777-1.1325-12.13661 7.3954-2.3071"/>
    <path id="Harris" d="M395.2454 492.00185l6.37413.83722 1.1325 12.13661-8.31807.64851-.08076-1.12933-6.85913.48084-2.54239-6.32336-2.24608-5.65153 12.5398-.99896"/>
    <path id="Troup" d="M391.04509 475.78126l3.07584 1.34406 1.12447 14.87653-12.5398.99896-2.65358-10.96536-.23539-.98771 11.22846-5.26648"/>
    <path id="Carroll" d="M385.24036 448.60879l5.35343 1.08201 4.28574 9.40803-1.40373 3.03343-6.07548 4.48268-10.76111.63903-.59072-2.54178-1.84144-7.86002 1.86419-.08108 6.02431-2.65687 2.86725-2.89317.27756-2.61226"/>
    <path id="Paulding" d="M388.74513 435.64403l7.09707-.3763.39899 6.16775.62853-.05205.42237 6.62489-6.6983 1.68248-5.35343-1.08201-.77081-4.29446-.15145-2.24015 2.73936-.14403 1.68767-6.28612"/>
    <path id="Murray" d="M397.07123 392.41841l.57476 6.20441 1.41754 1.18802.09121.1488-.02095.14748-.87806 1.36599-1.05654 1.06134-.54957 2.12974.61378 6.7998-10.05611-1.65042-1.22082-2.0409.18725-1.54473 2.84421-10.28606.90101-2.96137 1.30419-.10565 5.8481-.45645"/>
    <path id="Gordon" d="M387.20729 409.81357l10.05611 1.65042.12517 1.60187.52033 6.37218-13.38109 1.93942-3.06801-8.94555.5959-1.70054 5.15159-.9178"/>
    <path id="Bartow" d="M397.9089 419.43804l.95934 15.66928-10.12311.53671-4.79735-.30829-.29889-5.4792.78389-.04522.26225-6.30525-.16722-2.12861 13.38109-1.93942"/>
    <path id="Cobb" d="M398.86824 435.10732l9.22348-.49293 1.3963 3.56899-1.62172 5.60848-.51709 1.80173-.2571.66204-2.53896 2.91842-1.38323 1.32935-5.87783-2.49508-.42237-6.62489-.62853.05205-.39899-6.16775 3.02604-.16041"/>
    <path id="Douglas" d="M390.59379 449.6908l6.6983-1.68248 5.87783 2.49508-2.58297 3.75633-3.7468 2.14867-1.55632 1.64393-.33084.44521-.07346.60129-4.28574-9.40803"/>
    <path id="Coweta" d="M393.4758 462.13226l9.34041-.27061.34486 4.84411 2.38515 2.48297 1.65071 2.2263.82957 1.55315-.0461 1.71021-13.85947 2.44693-3.07584-1.34406-3.64477-9.16632 6.07548-4.48268"/>
    <path id="Meriwether" d="M408.31272 476.42692l-.39228 10.00995 1.09449 4.0951-7.3954 2.3071-6.37413-.83722-1.12447-14.87653 13.85947-2.44693.33232 1.74853"/>
    <path id="Pike" d="M408.31272 476.42692l1.67306-1.33473 2.23966-.14063.8481.80104 4.85478-.34077-.10763 9.29846-9.90025 1.72658.39228-10.00995"/>
    <path id="Upson" d="M417.82069 484.71029l5.91985 2.27973.26846 3.86337-2.4443 7.69003-3.47756-2.4187-1.95825-.41536-1.90812-.81496-.34548-.2939-.08249-.34751-.44259-.96785-.58655-.82211-2.56309-1.81025-.83293-.23927-.35271.11846-1.09449-4.0951 9.90025-1.72658"/>
    <path id="Crawford" d="M424.009 490.85339l9.0363-.68213 8.06279 6.65253-.00064.01444-11.1547 8.53489-8.38805-6.8297 2.4443-7.69003"/>
    <path id="Peach" d="M429.95275 505.37312l11.1547-8.53489-.09403 7.50359-.08049.51412-2.62409 3.70384-.73534.42383-.39401.0696-.8589-1.29744-6.86-1.2314-1.42944-.61589 1.9216-.53536"/>
    <path id="Houston" d="M441.10745 496.83823l.00064-.01444 4.14658.94941 4.75413 9.5408.19334 2.35781-4.12966 5.67577-9.13745.67771-.61444-8.26952.8589 1.29744.39401-.0696.73534-.42383 2.62409-3.70384.08049-.51412.09403-7.50359"/>
    <path id="Bleckley" d="M464.15469 507.41359l-7.48639 7.76194-6.46616-5.50372-.19334-2.35781 10.0383-7.09972 4.10759 7.19931"/>
    <path id="Laurens" d="M460.0471 500.21428l9.97189-6.74063 3.64002-.70541 3.11697 1.06712 4.90541 3.04245.16261 4.13022 1.10698.42868-1.99163 9.7479-5.87232 5.87442-3.94981 2.65019-6.98253-12.29563-4.10759-7.19931"/>
    <path id="Wilkinson" d="M453.51907 484.73859l7.22601-4.13897.60656-.45844.58387.05819 2.51815 2.58655 1.94457 3.53151 1.72218.68012.63258.43319.96885 1.67872.46875 1.93913-.1716 2.42506-9.97189 6.74063-8.34112-14.00232 1.81309-1.47337"/>
    <path id="Twiggs" d="M447.79771 489.07031l3.90827-2.85835 8.34112 14.00232-10.0383 7.09972-4.75413-9.5408.43626-3.50666 2.64963-3.13078.45683-1.17089-.99968-.89456"/>
    <path id="Bibb" d="M439.69973 484.70402l.7141 1.62772 1.57555 1.21668 2.33599-.1907 1.34138.36657 2.13096 1.34602.99968.89456-.45683 1.17089-2.64963 3.13078-.43626 3.50666-4.14658-.94941-8.06279-6.65253 6.65443-5.46724"/>
    <path id="Baldwin" d="M455.66262 472.27155l.80195-.04443 6.18175 1.09665.11475.18965.01325.2757-.06347.37369-.21966.13877-.16165.38386-.22753 1.72033.10226.39182.76277 1.26063 1.00411-.77402.74227-.82898-.25976 6.3307-2.51815-2.58655-.58387-.05819-.60656.45844-7.22601 4.13897-3.85275-11.85057 5.9963-.61647"/>
    <path id="Jones" d="M449.66632 472.88802l3.85275 11.85057-1.81309 1.47337-3.90827 2.85835-2.13096-1.34602-1.34138-.36657-2.33599.1907-1.57555-1.21668-.7141-1.62772-4.80329-8.00812 10.31851-2.76161 4.45137-1.04627"/>
    <path id="Monroe" d="M425.89133 474.11063l8.58221.34409.4229 2.24118 4.80329 8.00812-6.65443 5.46724-9.0363.68213-.26846-3.86337 2.69367-.17499.33209-.80353-.87497-11.90087"/>
    <path id="Lamar" d="M425.89133 474.11063l.87497 11.90087-.33209.80353-2.69367.17499-5.91985-2.27973.10763-9.29846 4.76633-1.04693 3.19668-.25427"/>
    <path id="Spalding" d="M411.9211 468.19431l1.29319-.10251 9.93918 1.75748-.45882 4.51562-4.76633 1.04693-4.85478.34077-.8481-.80104-2.23966.14063-1.67306 1.33473-.33232-1.74853.0461-1.71021 3.8946-4.77387"/>
    <path id="Fayette" d="M402.81621 461.86165l5.65456-2.7274 3.45033 9.06006-3.8946 4.77387-.82957-1.55315-1.65071-2.2263-2.38515-2.48297-.34486-4.84411"/>
    <path id="Clayton" d="M414.93888 454.11858l.78437.68601.27633 2.28181-.02452 1.54826-.74021 5.401-.34372.40844-1.87563.75389.19879 2.89381-1.29319.10251-3.45033-9.06006 3.81482-4.85338 2.65329-.16229"/>
    <path id="Butts" d="M429.47942 462.13414l2.66241 3.67161 2.33171 8.64897-8.58221-.34409-3.19668.25427.45882-4.51562 6.32595-7.71514"/>
    <path id="Henry" d="M414.93888 454.11858l3.74287-.24478 5.86326 5.13699 4.93441 3.12335-6.32595 7.71514-9.93918-1.75748-.19879-2.89381 1.87563-.75389.34372-.40844.74021-5.401.02452-1.54826-.27633-2.28181-.78437-.68601"/>
    <path id="DeKalb" d="M413.95848 439.58864l10.49584 8.78647-1.16614 1.33162-2.42405 4.6719-2.18238-.50483-3.74287.24478-2.65329.16229-.2394-3.45306-.18702-2.83174-.02401-.44269-.60155-7.90334 2.72487-.0614"/>
    <path id="Fulton" d="M413.79213 428.86276l6.69458 5.82505-6.52823 4.90083-2.72487.0614.60155 7.90334.02401.44269.18702 2.83174.2394 3.45306-3.81482 4.85338-5.65456 2.7274-9.34041.27061 1.40373-3.03343.07346-.60129.33084-.44521 1.55632-1.64393 3.7468-2.14867 2.58297-3.75633 1.38323-1.32935 2.53896-2.91842.2571-.66204.51709-1.80173 1.62172-5.60848-1.3963-3.56899 5.70041-5.75163"/>
    <path id="Cherokee" d="M413.1317 419.74415l.11945 2.14463.54098 6.97398-5.70041 5.75163-9.22348.49293-.95934-15.66928 15.2228.30611"/>
    <path id="Pickens" d="M397.38857 413.06586l3.57013-.35009 7.19873-.46597.93043-.74468.0536.67566 1.28944 3.6946 2.40383-.16961.29697 4.03838-15.2228-.30611-.52033-6.37218"/>
    <path id="Dawson" d="M414.54178 408.48294l.37531.68614 8.6611 7.9494 1.18253 3.90349-11.50957.86681-.11945-2.14463-.29697-4.03838-2.40383.16961-1.28944-3.6946-.0536-.67566 5.45392-3.02218"/>
    <path id="Forsyth" d="M413.25115 421.88878l11.50957-.86681-3.4101 8.08565-.86391 5.58019-6.69458-5.82505-.54098-6.97398"/>
    <path id="Gwinnett" d="M430.89468 430.2179l1.51277 9.16325-6.47455 7.3068-1.47858 1.68716-10.49584-8.78647 6.52823-4.90083.86391-5.58019 9.54406 1.11028"/>
    <path id="Rockdale" d="M428.68029 448.42303l-4.13528 10.58776-5.86326-5.13699 2.18238.50483 2.42405-4.6719 1.16614-1.33162 1.47858-1.68716 2.74739 1.73508"/>
    <path id="Jasper" d="M444.59275 461.63547l.6222 12.29882-10.31851 2.76161-.4229-2.24118-2.33171-8.64897 6.35479-7.96003 6.09613 3.78975"/>
    <path id="Newton" d="M428.68029 448.42303l9.58487 6.11842.23146 3.30427-6.35479 7.96003-2.66241-3.67161-4.93441-3.12335 4.13528-10.58776"/>
    <path id="Walton" d="M432.40745 439.38115l5.92448.60753 5.77949 3.66363-5.84626 10.88914-9.58487-6.11842-2.74739-1.73508 6.47455-7.3068"/>
    <path id="Barrow" d="M430.89468 430.2179l1.42022 1.95193.63241.4368 3.56695.87693.93-.07504 3.15709.15305.43281.28326 1.25517 2.99084-3.9574 3.15301-5.92448-.60753-1.51277-9.16325"/>
    <path id="Jackson" d="M446.48364 425.56271l2.28033 7.18064-6.47464 4.09232-1.25517-2.99084-.43281-.28326-3.15709-.15305-.93.07504-3.56695-.87693-.63241-.4368-1.42022-1.95193 6.88503-8.49422 1.1465 1.01322.76182.54021.44808.18258 1.67263-.25239 1.43641-.39668 2.30292 1.88207.93557.87002"/>
    <path id="Clarke" d="M448.76397 432.74335l4.07878 1.58716-.31137.00082-.30813 2.15481.02664.13511.16289.41257 1.50895 1.66261-1.09792 2.74639-10.53448-4.60715 6.47464-4.09232"/>
    <path id="Oconee" d="M438.33193 439.98868l3.9574-3.15301 10.53448 4.60715.16249 4.05059-4.55412 3.38745-4.32076-5.22855-5.77949-3.66363"/>
    <path id="Morgan" d="M448.43218 448.88086l5.75052 9.60264-9.58995 3.15197-6.09613-3.78975-.23146-3.30427 5.84626-10.88914 4.32076 5.22855"/>
    <path id="Putnam" d="M444.59275 461.63547l9.58995-3.15197 5.00425 5.5735.54276.33511.27417.26907.06576.15129-.39239 1.51763-1.6042 1.1676-1.08286.50632-.83715.84653-.54482 2.76342-.00632.47392.06072.18366-5.9963.61647-4.45137 1.04627-.6222-12.29882"/>
    <path id="Hancock" d="M470.85195 458.82415l1.21132.69026 1.82494 5.26745 1.52147 2.53193.3574.68175-1.14537.11625-2.75042 2.21052-.42823.76671-.36922 1.31954-.29752.758-.42436.5135-3.9369 2.60369-1.70164.17147-.74227.82898-1.00411.77402-.76277-1.26063-.10226-.39182.22753-1.72033.16165-.38386.21966-.13877.06347-.37369-.01325-.2757-.11475-.18965-6.18175-1.09665-.80195.04443-.06072-.18366.00632-.47392.54482-2.76342.83715-.84653 1.08286-.50632 1.6042-1.1676.39239-1.51763-.06576-.15129-.27417-.26907-.54276-.33511 5.34639-5.85046 6.31861.61761"/>
    <path id="Taliaferro" d="M465.85535 445.65278l2.62738 4.38682.52694.61318.0831.00365 4.74433-.29857 2.94549.52022-1.33868 1.88153-3.73662 2.98893-1.3552 1.92787-.05915.19289.55901.95485-6.31861-.61761-.305-10.53646 1.62701-2.0173"/>
    <path id="Greene" d="M464.22834 447.67008l.305 10.53646-5.34639 5.85046-5.00425-5.5735-5.75052-9.60264 4.55412-3.38745 11.24204 2.17667"/>
    <path id="Oglethorpe" d="M463.44948 431.27023l7.85707 2.67969-2.48551 1.70087-.82179.90873-2.21597 3.64212-1.59305 3.14095-.02445.22697 1.68957 2.08322-1.62701 2.0173-11.24204-2.17667-.16249-4.05059 1.09792-2.74639-1.50895-1.66261-.16289-.41257-.02664-.13511.30813-2.15481.31137-.00082 4.56479-2.64129.27963-.02031.54213.34959 2.05803.69847.51758.08425 2.64457-1.53099"/>
    <path id="Wilkes" d="M471.30655 433.94992l5.04535-1.13603 7.96885 15.47376-6.40391 2.06826-1.13425.52217-2.94549-.52022-4.74433.29857-.0831-.00365-.52694-.61318-2.62738-4.38682-1.68957-2.08322.02445-.22697 1.59305-3.14095 2.21597-3.64212.82179-.90873 2.48551-1.70087"/>
    <path id="Warren" d="M477.91684 450.35591l2.14041 4.76001 3.23169 6.70114 1.68248.59511 4.55257.77175-1.68414 1.91705-2.75787-1.08394-2.42334-.87015-1.16025.3726-6.08871 3.79431-1.52147-2.53193-1.82494-5.26745-1.21132-.69026-.55901-.95485.05915-.19289 1.3552-1.92787 3.73662-2.98893 1.33868-1.88153 1.13425-.52217"/>
    <path id="McDuffie" d="M486.36161 447.56275l-.364.45823-.05962.61639.47525 3.68783 2.40113 3.68548 3.29864 4.35113.67732.48582-2.10226 2.20639-1.16408.1299-4.55257-.77175-1.68248-.59511-3.23169-6.70114-2.14041-4.76001 6.40391-2.06826 2.04086-.7249"/>
    <path id="Glascock" d="M475.40968 467.31379l6.08871-3.79431 1.16025-.3726 2.42334.87015 2.75787 1.08394-1.39327 1.3108-4.04953 4.09738.11087.44288.22415 1.98632-3.11505-.03898-3.84994-4.90383-.3574-.68175"/>
    <path id="Jefferson" d="M489.52399 463.18392l1.16408-.1299 3.52464 1.75831.21472.05649.31375.2744 1.00705 1.22068-.96575 3.77662-.35003 2.03713-.16447 2.26247.24208 1.1654.37913 1.34152.69033 3.24116-.60846 2.81131-.6132 2.09437-4.23605 3.89371-3.66039-2.4593-.63961-5.13938-1.58367-3.67134-.11623.00939-1.38426-.79198-1.5259-1.27603-.59862-.87695-.99611-1.88263 3.11505.03898-.22415-1.98632-.11087-.44288 4.04953-4.09738 1.39327-1.3108 1.68414-1.91705"/>
    <path id="Washington" d="M479.61702 472.89937l.99611 1.88263.59862.87695 1.5259 1.27603 1.38426.79198.11623-.00939 1.58367 3.67134.63961 5.13938-3.33041 1.48642-2.16426.89687-4.26206-.13276-1.11727-.6065-5.39683 2.87627-.46875-1.93913-.96885-1.67872-.63258-.43319-1.72218-.68012-1.94457-3.53151.25976-6.3307 1.70164-.17147 3.9369-2.60369.42436-.5135.29752-.758.36922-1.31954.42823-.76671 2.75042-2.21052 1.14537-.11625 3.84994 4.90383"/>
    <path id="Johnson" d="M490.12181 488.98759l-7.17083 12.44912-1.10698-.42868-.16261-4.13022-4.90541-3.04245-3.11697-1.06712-3.64002.70541.1716-2.42506 5.39683-2.87627 1.11727.6065 4.26206.13276 2.16426-.89687 3.33041-1.48642 3.66039 2.4593"/>
    <path id="Treutlen" d="M482.95098 501.43671l5.87033.10923 1.01324.33768 3.36952 1.58137.36147.34165-.18379 2.29059-.4054 1.81389-9.37568 3.54871-2.64132-.27522 1.99163-9.7479"/>
    <path id="Montgomery" d="M492.97635 507.91112l-1.03666 18.09391-2.4022.79231-2.37986-2.35605-.16404-.30403-.37341-.72951-1.00555-3.7292-.19111-2.49165-1.17936-4.71785-.28457-.93919-.35892-.07003 9.37568-3.54871"/>
    <path id="Toombs" d="M492.97635 507.91112l7.05726.94322 2.31906 8.11266-.09377 10.71446-8.35829-1.65191-1.96092-.02452 1.03666-18.09391"/>
    <path id="Liberty" d="M519.79688 519.52809l1.47875-2.10343 3.28575 1.67544 6.8203 2.63055 2.82194 1.10848.30107.56344 1.12569 3.05394.06161.3285-.01655.12959.4026.39414 2.85319 2.29355 4.37048 2.36376.23875.08651-.15612.34066.75983.75009 1.04511.35356.25203-.13374.07125-.2213.10419-.0642.39368-.06237.33751.14513.19023 1.93415.09965 1.44148-.78258 2.57199-.42302.73077-.22984.04059-.64402-.50248.00226-1.28859-.14832-.33231-1.25356-1.13014-.70031-.37462-1.12536-.42224-2.14228-.18091-2.90359 1.08162-1.00101-.28646-1.87708-1.43986-1.26988-.42859-.3258.00018-5.91354-2.42424-5.3823-4.54754-.08997-.50713-1.98782-4.52527-.9406-1.25033 2.29768-1.79237"/>
    <path id="Evans" d="M508.34362 509.87427l2.25553.24016 7.89034 4.64315 2.78614 2.66708-1.47875 2.10343-5.01381.41705-3.72096-1.07915-2.71849-8.99172"/>
    <path id="Tattnall" d="M500.03361 508.85434l8.31001 1.01993 2.71849 8.99172 3.72096 1.07915 5.01381-.41705-2.29768 1.79237-4.58445 11.08932-3.31083-1.434-7.34502-3.29432.09377-10.71446-2.31906-8.11266"/>
    <path id="Candler" d="M506.89708 497.79988l2.43761.95767 2.51665 4.35301-.87426 5.89829-.37793 1.10558-2.25553-.24016-8.31001-1.01993-.69981-1.95289 1.98878-5.47653 1.04606-2.30703 2.49259-2.10962 2.03585.79161"/>
    <path id="Emanuel" d="M501.12694 485.51041l6.5654 9.01578-.79526 3.27369-2.03585-.79161-2.49259 2.10962-1.04606 2.30703-1.98878 5.47653.69981 1.95289-7.05726-.94322.4054-1.81389.18379-2.29059-.36147-.34165-3.36952-1.58137-1.01324-.33768-5.87033-.10923 7.17083-12.44912 4.23605-3.89371 6.76908.41653"/>
    <path id="Chatham" d="M543.81299 508.68708l.16238.91936.28686 1.87684.41716 2.04184.17289.18496 2.16302.94563 7.18406 1.68361 1.34473.20745.36929.08137.17019.57579-.01792.40828-.17592.70901-.45043.94314-6.99037 10.23439-.31057.39541-1.92013 2.01528-.2803.11803-.88399-.23066-1.13063-4.01343-1.59844-4.8195-4.38034-3.21126-3.11413-3.02898-.79273-.99045 9.77532-7.04611"/>
    <path id="Bryan" d="M518.48949 514.75758l13.08538-5.59404 2.4628 6.56965.79273.99045 3.11413 3.02898 4.38034 3.21126 1.59844 4.8195 1.13063 4.01343-1.51348.25575-.23875-.08651-4.37048-2.36376-2.85319-2.29355-.4026-.39414.01655-.12959-.06161-.3285-1.12569-3.05394-.30107-.56344-2.82194-1.10848-6.8203-2.63055-3.28575-1.67544-2.78614-2.66708"/>
    <path id="Bulloch" d="M513.72984 491.89885l12.22379 6.20167 5.62124 11.06302-13.08538 5.59404-7.89034-4.64315.37793-1.10558.87426-5.89829-2.51665-4.35301-2.43761-.95767.79526-3.27369 6.0375-2.62734"/>
    <path id="Jenkins" d="M501.12694 485.51041l-.15256-.31801.6381-3.07427 1.48345-1.71588 8.52638-2.59049 1.29949.24888 1.64901.61536.39559.30696.33611.50707-1.57267 12.40882-6.0375 2.62734-6.5654-9.01578"/>
    <path id="Effingham" d="M531.57197 492.48646l4.00029 1.80816.73567.31101 3.3427 3.0173 3.76517 8.56709.39719 2.49706-9.77532 7.04611-2.4628-6.56965-5.62124-11.06302 5.61834-5.61406"/>
    <path id="Screven" d="M515.30251 479.49003l8.05548-7.28449 6.83269 13.40036 1.38129 6.88056-5.61834 5.61406-12.22379-6.20167 1.57267-12.40882"/>
    <path id="Burke" d="M494.21271 464.81233l3.60291-1.75681.25934.02949 1.23941.79287.25049.56121 2.25915.98242 3.74807.13191 3.2803-1.91214 1.51917.43953 3.50361 2.89766 6.36604 3.331 3.11679 1.89607-8.05548 7.28449-.33611-.50707-.39559-.30696-1.64901-.61536-1.29949-.24888-8.52638 2.59049-1.48345 1.71588-.6381 3.07427.15256.31801-6.76908-.41653.6132-2.09437.60846-2.81131-.69033-3.24116-.37913-1.34152-.24208-1.1654.16447-2.26247.35003-2.03713.96575-3.77662-1.00705-1.22068-.31375-.2744-.21472-.05649"/>
    <path id="Richmond" d="M502.11915 450.94393l.60641.61666.31514.32514 1.74876 1.80707 2.45102 3.12658.75914 3.56998 2.37193 3.69145-1.51917-.43953-3.2803 1.91214-3.74807-.13191-2.25915-.98242-.25049-.56121-1.23941-.79287-.25934-.02949-3.60291 1.75681-3.52464-1.75831 2.10226-2.20639 9.32882-9.9037"/>
    <path id="Columbia" d="M494.13676 445.09855l4.28761 4.08683 3.69478 1.75855-9.32882 9.9037-.67732-.48582-3.29864-4.35113-2.40113-3.68548-.47525-3.68783.05962-.61639.364-.45823 7.77515-2.4642"/>
    <path id="Lincoln" d="M476.3519 432.81389l3.25191 1.04408 5.61203 3.68523.23922.07565.55114-.18576.1764.02223 3.25035 1.82228.97646.76323 2.30896 2.0742 1.41839 2.98352-7.77515 2.4642-2.04086.7249-7.96885-15.47376"/>
    <path id="Elbert" d="M470.43524 418.91437l1.27051 3.79513 6.40771 8.65048 1.49035 2.49799-3.25191-1.04408-5.04535 1.13603-7.85707-2.67969-4.6645-8.20112 11.65026-4.15474"/>
    <path id="Madison" d="M457.22451 421.01329l1.56047 2.05582 4.6645 8.20112-2.64457 1.53099-.51758-.08425-2.05803-.69847-.54213-.34959-.27963.02031-4.56479 2.64129-4.07878-1.58716-2.28033-7.18064 1.69729-1.39157 9.04358-3.15785"/>
    <path id="Banks" d="M445.56203 413.23988l2.6189 10.93126-1.69729 1.39157-.93557-.87002-2.30292-1.88207-1.43641.39668-1.67263.25239-.44808-.18258-.76182-.54021-1.1465-1.01322-.33967-6.36425 5.68524-2.84913 2.43675.72958"/>
    <path id="Hall" d="M435.16656 412.14653l2.27348 3.2129.33967 6.36425-6.88503 8.49422-9.54406-1.11028 3.4101-8.08565-1.18253-3.90349 4.8447-4.4824 6.74367-.48955"/>
    <path id="Lumpkin" d="M427.07058 402.53869l1.35231 10.09739-4.8447 4.4824-8.6611-7.9494 1.00033-2.25472 2.93773-.45749 3.25397-2.79656 4.96146-1.12162"/>
    <path id="Gilmer" d="M397.64599 398.62282l7.27024-.52797 2.15339.34066 1.61613 1.11709.85254.69987 2.5265 3.71632 2.11742 3.38706.35957 1.12709-5.45392 3.02218-.93043.74468-7.19873.46597-3.57013.35009-.12517-1.60187-.61378-6.7998.54957-2.12974 1.05654-1.06134.87806-1.36599.02095-.14748-.09121-.1488-1.41754-1.18802"/>
    <path id="Fannin" d="M408.4154 391.52624l7.28847-.5308-1.58471 1.54856-.14871.2541.0255.24366 1.95328 6.38438.69838.50124.72519-.19261-.39205 4.89141-1.06333 2.28818-1.00033 2.25472-.37531-.68614-.35957-1.12709-2.11742-3.38706-2.5265-3.71632-.85254-.69987-1.61613-1.11709-2.15339-.34066-7.27024.52797-.57476-6.20441 11.34417-.89217"/>
    <path id="Union" d="M420.3975 390.61502l2.60901-.22577-.26535.8499 1.15598 1.2091 2.25143 1.4056 1.1056-.03473 1.08488.68473 1.24154 3.30155.11119 1.17773-2.6212 3.55556-4.96146 1.12162-3.25397 2.79656-2.93773.45749 1.06333-2.28818.39205-4.89141-.72519.19261-.69838-.50124-1.95328-6.38438-.0255-.24366.14871-.2541 1.58471-1.54856 4.69363-.38042"/>
    <path id="White" d="M429.69178 398.98313l3.71448-.66956 1.95444 1.24416.24079.4522.20859 1.18562 1.07381 8.93764-1.71733 2.01334-6.74367.48955-1.35231-10.09739 2.6212-3.55556"/>
    <path id="Habersham" d="M434.43737 397.1715l11.79583 3.99284.69647 1.28667-3.80439 10.05929-5.68524 2.84913-2.27348-3.2129 1.71733-2.01334-1.07381-8.93764-.20859-1.18562-.24079-.4522-1.95444-1.24416 1.03111-1.14207"/>
    <path id="Hart" d="M458.59972 410.54693l2.34844.43248.43207-.19462.03315-.01301 1.53394-.30915 1.37363-.12072.78848.26266.37719.31339-.02.12583 1.1822 2.01387 3.78642 5.85671-11.65026 4.15474-1.56047-2.05582 1.37521-10.46636"/>
    <path id="Franklin" d="M456.3371 408.81865l2.26262 1.72828-1.37521 10.46636-9.04358 3.15785-2.6189-10.93126.78296-.43623.29709-.08832 7.23965-.98542 2.45537-2.91126"/>
    <path id="Stephens" d="M446.92967 402.45101l9.40743 6.36764-2.45537 2.91126-7.23965.98542-.29709.08832-.78296.43623-2.43675-.72958 3.80439-10.05929"/>
  </g>
</svg>
