<?xml version="1.0" encoding="UTF-8" standalone="no"?>
<svg
   xmlns:dc="http://purl.org/dc/elements/1.1/"
   xmlns:cc="http://creativecommons.org/ns#"
   xmlns:rdf="http://www.w3.org/1999/02/22-rdf-syntax-ns#"
   xmlns:svg="http://www.w3.org/2000/svg"
   xmlns="http://www.w3.org/2000/svg"
   xmlns:sodipodi="http://sodipodi.sourceforge.net/DTD/sodipodi-0.dtd"
   xmlns:inkscape="http://www.inkscape.org/namespaces/inkscape"
   version="1.1"
   id="svg2"
   xml:space="preserve"
   width="1932.1733"
   height="529.12268"
   viewBox="0 0 1932.1733 529.12268"
   sodipodi:docname="CyberArch_logo_Horizontal_W.ai"><metadata
     id="metadata8"><rdf:RDF><cc:Work
         rdf:about=""><dc:format>image/svg+xml</dc:format><dc:type
           rdf:resource="http://purl.org/dc/dcmitype/StillImage" /></cc:Work></rdf:RDF></metadata><defs
     id="defs6"><clipPath
       clipPathUnits="userSpaceOnUse"
       id="clipPath18"><path
         d="M 0,396.842 H 1449.132 V 0 H 0 Z"
         id="path16" /></clipPath></defs><sodipodi:namedview
     pagecolor="#ffffff"
     bordercolor="#666666"
     borderopacity="1"
     objecttolerance="10"
     gridtolerance="10"
     guidetolerance="10"
     inkscape:pageopacity="0"
     inkscape:pageshadow="2"
     inkscape:window-width="640"
     inkscape:window-height="480"
     id="namedview4" /><g
     id="g10"
     inkscape:groupmode="layer"
     inkscape:label="CyberArch_logo_Horizontal_W"
     transform="matrix(1.3333333,0,0,-1.3333333,0,529.12267)"><g
       id="g12"><g
         id="g14"
         clip-path="url(#clipPath18)"><g
           id="g20"
           transform="translate(260.8307,125.8982)"><path
             d="m 0,0 h -23.709 v -0.018 l -8.893,-8.415 v 29.56 c 0,0.442 -0.247,0.849 -0.636,1.061 -2.352,1.22 -3.801,3.607 -3.801,6.259 l -0.018,114.724 c 0.141,2.529 2.033,4.615 4.526,4.951 0.601,0.088 1.043,0.601 1.043,1.202 v 11.952 c 0,0.671 -0.548,1.202 -1.202,1.202 h -8.628 c -3.306,19.094 -13.207,36.615 -27.916,49.38 -15.364,13.366 -35.077,20.72 -55.462,20.72 -20.385,0 -40.08,-7.354 -55.462,-20.72 -14.692,-12.765 -24.61,-30.286 -27.916,-49.38 h -8.628 c -0.654,0 -1.202,-0.531 -1.202,-1.202 v -11.952 c 0,-0.601 0.442,-1.114 1.043,-1.202 2.564,-0.354 4.508,-2.581 4.508,-5.18 V 28.447 c 0,-2.652 -1.467,-5.039 -3.801,-6.259 -0.389,-0.194 -0.636,-0.619 -0.636,-1.061 V 0 h -31.718 V 258.603 H 0 Z m -193.011,148.122 h 56.346 c 2.581,-0.336 4.526,-2.564 4.526,-5.18 V 28.447 c 0,-2.652 -1.45,-5.039 -3.784,-6.259 -0.389,-0.194 -0.636,-0.619 -0.636,-1.061 V 0 h -47.612 l -8.875,-8.433 V 21.11 c 0,0.459 -0.265,0.866 -0.654,1.078 -2.352,1.22 -3.802,3.607 -3.802,6.259 v 114.724 c 0.124,2.546 2.016,4.632 4.491,4.951 m -2.581,14.356 c 3.147,15.487 11.474,29.72 23.461,40.133 13.154,11.421 30.003,17.715 47.435,17.715 17.432,0 34.281,-6.294 47.435,-17.715 11.987,-10.413 20.314,-24.646 23.479,-40.133 z m 82.123,-140.29 c -2.352,1.22 -3.801,3.607 -3.801,6.259 v 114.724 c 0.123,2.546 2.015,4.632 4.473,4.951 h 56.363 c 2.581,-0.336 4.526,-2.564 4.526,-5.18 V 28.447 c 0,-2.652 -1.45,-5.039 -3.784,-6.259 -0.388,-0.194 -0.636,-0.619 -0.636,-1.061 V 0 h -47.612 l -8.875,-8.433 V 21.11 c 0,0.459 -0.265,0.866 -0.654,1.078 M 0,-19.961 c 0,-27.085 -20.597,-47.275 -37.87,-59.422 -22.542,-15.876 -53.924,-28.217 -86.384,-33.998 -32.443,5.781 -63.824,18.122 -86.384,33.998 -17.273,12.147 -37.87,32.337 -37.87,59.422 v 6.577 h 31.718 v -23.372 c 0,-0.655 0.53,-1.203 1.202,-1.203 h 21.34 c 0.654,0 1.202,0.548 1.202,1.203 v 23.372 h 56.487 v -23.372 c 0,-0.655 0.53,-1.203 1.202,-1.203 h 21.322 c 0.672,0 1.22,0.548 1.22,1.203 v 23.372 h 56.487 v -23.372 c 0,-0.655 0.53,-1.203 1.202,-1.203 h 21.322 c 0.672,0 1.202,0.548 1.202,1.203 v 23.372 H 0 Z M -260.831,270.944 V -19.961 c 0,-55.497 69.411,-94.551 136.577,-105.937 67.166,11.386 136.577,50.44 136.577,105.937 v 290.905 z"
             style="fill:#ffffff;fill-opacity:1;fill-rule:nonzero;stroke:none"
             id="path22" /></g><g
           id="g24"
           transform="translate(103.5509,43.8814)"><path
             d="M 0,0 V -1.627 H -16.707 V 0 c 3.253,0.124 4.791,0.46 4.791,2.016 v 16.901 c 0,1.273 -0.23,2.051 -0.796,2.599 -0.689,0.672 -1.909,0.973 -3.907,0.973 h -0.301 v 1.573 l 12.093,0.849 V 2.016 C -4.827,0.46 -3.271,0.124 0,0"
             style="fill:#ffffff;fill-opacity:1;fill-rule:nonzero;stroke:none"
             id="path26" /></g><g
           id="g28"
           transform="translate(131.6265,68.704)"><path
             d="m 0,0 v -2.793 l -7.461,-13.225 -5.392,-10.82 h -5.516 v 1.467 l 14.214,19.537 0.177,0.247 h -9.583 c -3.818,0 -4.667,-0.919 -5.427,-4.102 h -1.521 L -20.261,0 Z"
             style="fill:#ffffff;fill-opacity:1;fill-rule:nonzero;stroke:none"
             id="path30" /></g><g
           id="g32"
           transform="translate(149.0411,43.3156)"><path
             d="m 0,0 c -3.501,0 -5.658,2.882 -5.658,5.534 0,1.768 0.584,3.218 1.874,4.597 l 0.071,0.088 0.106,-0.053 C -3.2,9.989 -2.705,9.812 -2.175,9.671 2.864,7.991 4.65,6.559 4.65,4.173 4.65,1.644 2.829,0 0,0 m -0.636,24.292 c 3.111,0 5.109,-1.785 5.109,-4.561 0,-1.945 -0.601,-3.448 -1.998,-5.021 L 2.404,14.639 2.298,14.674 c -3.483,1.273 -6.895,2.794 -6.895,5.923 0,2.422 1.998,3.695 3.961,3.695 m 5.162,-10.466 -0.354,0.141 0.354,0.142 c 3.483,1.308 5.251,3.2 5.251,5.622 0,3.058 -3.076,6.347 -9.812,6.347 -6.277,0 -10.325,-3.236 -10.325,-8.274 0,-2.617 1.485,-4.792 4.42,-6.489 l 0.265,-0.159 -0.283,-0.106 c -3.465,-1.379 -5.216,-3.412 -5.216,-6.064 0,-4.314 4.084,-6.772 11.227,-6.772 6.029,0 10.573,3.572 10.573,8.31 0,3.147 -1.998,5.534 -6.1,7.302"
             style="fill:#ffffff;fill-opacity:1;fill-rule:nonzero;stroke:none"
             id="path34" /></g><g
           id="g36"
           transform="translate(188.6086,50.3523)"><path
             d="m 0,0 c 0,-4.208 -3.288,-8.734 -10.537,-8.734 -6.559,0 -10.484,2.263 -10.484,6.082 0,2.192 1.52,3.66 3.783,3.66 2.334,0 3.395,-1.786 3.395,-3.536 0,-1.468 -0.99,-2.741 -1.98,-3.236 l -0.213,-0.106 0.195,-0.159 c 0.601,-0.46 2.457,-0.919 3.73,-0.919 3.678,0 5.534,2.21 5.534,6.559 0,3.907 -2.033,6.153 -5.569,6.153 -2.351,0 -3.943,-0.602 -5.852,-1.645 l -1.308,1.043 0.548,13.19 h 17.467 l -0.406,-5.375 h -14.586 l -0.301,-6.206 -0.017,-0.265 0.229,0.106 c 1.981,0.902 3.855,1.273 6.277,1.273 C -5.216,7.885 0,5.817 0,0"
             style="fill:#ffffff;fill-opacity:1;fill-rule:nonzero;stroke:none"
             id="path38" /></g><g
           id="g40"
           transform="translate(246.8695,29.805)"><path
             d="M 0,0 H 0.662 C 1.434,0 2.06,0.258 2.06,0.883 2.06,1.434 1.655,1.803 0.773,1.803 0.404,1.803 0.147,1.767 0,1.731 Z m -0.037,-3.42 h -1.397 v 6.031 c 0.552,0.111 1.323,0.186 2.317,0.186 1.14,0 1.655,-0.186 2.097,-0.443 C 3.311,2.099 3.568,1.62 3.568,1.03 3.568,0.368 3.053,-0.147 2.316,-0.365 V -0.44 C 2.906,-0.662 3.237,-1.102 3.42,-1.911 3.604,-2.83 3.715,-3.198 3.862,-3.42 H 2.354 C 2.17,-3.198 2.06,-2.647 1.876,-1.947 1.765,-1.285 1.397,-0.991 0.626,-0.991 h -0.663 z m -3.714,3.165 c 0,-2.686 1.986,-4.818 4.708,-4.818 2.647,0 4.597,2.132 4.597,4.78 0,2.686 -1.95,4.854 -4.635,4.854 -2.684,0 -4.67,-2.168 -4.67,-4.816 m 10.85,0 c 0,-3.423 -2.685,-6.106 -6.18,-6.106 -3.457,0 -6.215,2.683 -6.215,6.106 0,3.346 2.758,6.032 6.215,6.032 3.495,0 6.18,-2.686 6.18,-6.032"
             style="fill:#ffffff;fill-opacity:1;fill-rule:nonzero;stroke:none"
             id="path42" /></g><g
           id="g44"
           transform="translate(356.2736,309.9333)"><path
             d="m 0,0 c 0,22.445 16.667,39.001 38.445,39.001 7,0 13.889,-2.222 18.446,-4.778 l 3.222,4.778 h 4.444 V 12.667 h -5 c -4.445,13.445 -11.778,21.556 -21.446,21.556 -11.333,0 -21.334,-11 -21.334,-32.445 0,-22.001 12.113,-32.557 23.78,-32.557 10.334,0 17.556,6 22.778,16.556 l 4.223,-2 C 62.446,-28.112 52.445,-37.668 36.557,-37.668 13.445,-37.668 0,-21.89 0,0"
             style="fill:#ffffff;fill-opacity:1;fill-rule:nonzero;stroke:none"
             id="path46" /></g><g
           id="g48"
           transform="translate(435.1613,314.5998)"><path
             d="m 0,0 c -2.111,4.667 -3.778,6.111 -8.778,6.889 v 3.889 H 19.778 V 6.889 C 13.444,6.333 12.223,4.556 13.556,1.333 l 11.445,-27.556 9.556,22.779 c 2.778,6.333 1.778,9.222 -5.556,10.333 v 3.889 H 50.446 V 6.889 C 47.001,6.445 44.001,4.333 41.557,-1.333 L 22.334,-45.334 C 16.334,-59.335 10.556,-63.335 4,-63.335 c -6.556,0 -10.444,3.778 -10.444,8.667 0,3.889 2.777,7.667 7.333,7.667 4.444,0 7.001,-3.556 7.001,-7.223 0,-0.777 -0.223,-1.889 -0.446,-2.555 3.112,0.444 5.557,3.666 10.557,15.445 l 0.443,1.111 z"
             style="fill:#ffffff;fill-opacity:1;fill-rule:nonzero;stroke:none"
             id="path50" /></g><g
           id="g52"
           transform="translate(528.2717,300.1549)"><path
             d="m 0,0 c 0,12.334 -5.223,19.334 -12.778,19.334 -3.89,0 -6.89,-1.556 -10.001,-3.889 v -29.778 c 2.445,-5.556 6.111,-8.334 10.779,-8.334 8.333,0 12,7.667 12,22.667 m -36.002,-17.667 v 58.668 c 0,3.334 -1.555,5.334 -8.222,5.445 v 4 l 21.445,0.889 V 19.667 c 4.556,3.889 9.445,6.445 16.222,6.445 13.446,0 20.78,-10.778 20.78,-25.001 0,-15.778 -9.334,-28.111 -25.334,-28.111 -5.223,0 -11.446,1.666 -16.334,5.11 l -5.889,-6.111 h -2.89 z"
             style="fill:#ffffff;fill-opacity:1;fill-rule:nonzero;stroke:none"
             id="path54" /></g><g
           id="g56"
           transform="translate(564.4894,304.2663)"><path
             d="m 0,0 19.778,0.333 c 1.112,9.556 -2,17.445 -9.111,17.445 C 4.556,17.778 0.778,11.889 0,0 m -14.111,-5.222 c 0,16.445 10.221,27.334 25.555,27.334 C 26.89,22.112 34.335,9.889 33.445,-4 H -0.11 v -0.445 -0.222 c 0,-11.889 5.333,-20.111 15.777,-20.111 5.889,0 10.89,3.555 15.223,9.111 L 33.668,-18 c -4.667,-7.556 -11.112,-13.334 -22.224,-13.334 -16.444,0 -25.555,10.222 -25.555,26.112"
             style="fill:#ffffff;fill-opacity:1;fill-rule:nonzero;stroke:none"
             id="path58" /></g><g
           id="g60"
           transform="translate(605.7092,278.0431)"><path
             d="m 0,0 c 6.334,0.111 7.778,1.222 7.778,3.889 v 33.335 c 0,3.333 -1.444,5.333 -7.778,5.444 v 4 l 20.779,0.889 v -9 c 3.889,5 9.112,9.334 15,9.334 6.334,0 9.445,-4.112 9.445,-8.89 0,-4.667 -3,-8.111 -7.222,-8.111 -4.557,0 -7.557,2.556 -7.557,6.667 0,0.555 0.112,1.444 0.223,2.111 -3.889,0.111 -7.556,-2.667 -9.667,-5.334 V 3.889 C 21.001,1.222 22.89,0.222 30.779,0 V -4 H 0 Z"
             style="fill:#ffffff;fill-opacity:1;fill-rule:nonzero;stroke:none"
             id="path62" /></g><g
           id="g64"
           transform="translate(695.1525,305.4884)"><path
             d="M 0,0 -9.223,27.445 H -10 L -20.334,0 Z M 1.556,-4.667 H -22 l -3.779,-10 c -3.778,-9.667 -2.778,-11.111 6.334,-12.667 v -4.111 h -25.446 v 4.111 c 7.223,1.667 9.334,5 13.001,14.445 L -10,42.779 H 0 l 22.223,-61.891 c 1.777,-5 3.778,-6.888 11.667,-8.222 v -4.111 H -3.334 v 4.111 c 10.001,0.556 11.779,2.667 9.89,8.111 z"
             style="fill:#ffffff;fill-opacity:1;fill-rule:nonzero;stroke:none"
             id="path66" /></g><g
           id="g68"
           transform="translate(730.926,278.0431)"><path
             d="m 0,0 c 6.334,0.111 7.777,1.222 7.777,3.889 v 33.335 c 0,3.333 -1.443,5.333 -7.777,5.444 v 4 l 20.778,0.889 v -9 c 3.889,5 9.112,9.334 15.001,9.334 6.333,0 9.445,-4.112 9.445,-8.89 0,-4.667 -3.001,-8.111 -7.223,-8.111 -4.556,0 -7.556,2.556 -7.556,6.667 0,0.555 0.112,1.444 0.223,2.111 C 26.778,39.779 23.111,37.001 21,34.334 V 3.889 C 21,1.222 22.889,0.222 30.778,0 V -4 H 0 Z"
             style="fill:#ffffff;fill-opacity:1;fill-rule:nonzero;stroke:none"
             id="path70" /></g><g
           id="g72"
           transform="translate(780.8117,299.0441)"><path
             d="m 0,0 c 0,16.556 11.333,27.334 26.445,27.334 14,0 19.445,-7.111 19.445,-12.778 0,-4.556 -2.666,-7.889 -7.112,-7.889 -5,0 -7.554,2.889 -7.554,6.778 0,2.778 1.888,5.333 3.333,6.222 -1.112,1.778 -4.001,3.445 -7.667,3.445 -7.667,0 -12.889,-6.889 -12.889,-21.334 0,-12.334 5.443,-20.779 16.223,-20.779 5.666,0 10.444,3.001 14.222,7.667 l 2.778,-2.333 C 42.335,-21.112 35.89,-26.112 25.445,-26.112 9.667,-26.112 0,-15.667 0,0"
             style="fill:#ffffff;fill-opacity:1;fill-rule:nonzero;stroke:none"
             id="path74" /></g><g
           id="g76"
           transform="translate(832.8098,278.0431)"><path
             d="m 0,0 c 6.333,0.111 7.778,1.222 7.778,3.889 v 59.224 c 0,3.334 -1.556,5.334 -8.222,5.445 v 4 l 21.445,0.889 V 39.334 c 5.777,4.445 12.334,8.557 19.556,8.557 8.667,0 13.222,-5.667 13.222,-16.001 V 3.889 C 53.779,1.222 55.112,0.111 61.558,0 V -4 H 34.224 v 4 c 4.666,0.111 6.333,1.222 6.333,3.889 v 24.668 c 0,7.667 -2.889,10.667 -8.779,10.667 -4.111,0 -7.777,-1.778 -10.777,-3.667 V 3.889 C 21.001,1.222 22.556,0.111 27.334,0 V -4 L 0,-4 Z"
             style="fill:#ffffff;fill-opacity:1;fill-rule:nonzero;stroke:none"
             id="path78" /></g><g
           id="g80"
           transform="translate(1216.14,188.4808)"><path
             d="m 0,0 c 0,-13.722 -5.913,-21.783 -15.064,-21.783 -10.347,0 -17.857,10.012 -17.857,24.916 0,13.433 6.429,22.011 15.635,22.011 h 0.057 C -6.763,25.144 0,15.762 0,0 m -15.577,30.526 h -0.057 c -20.489,0 -31.21,-14.525 -31.21,-28.875 0,-16.46 12.952,-28.873 30.127,-28.873 17.755,0 30.641,12.431 30.641,29.558 0,16.07 -12.682,28.19 -29.501,28.19"
             style="fill:#ffffff;fill-opacity:1;fill-rule:nonzero;stroke:none"
             id="path82" /></g><g
           id="g84"
           transform="translate(947.1798,188.4808)"><path
             d="m 0,0 c 0,-13.722 -5.913,-22.587 -15.064,-22.587 -10.347,0 -17.857,10.816 -17.857,25.72 0,13.433 6.429,22.815 15.635,22.815 h 0.057 C -6.763,25.948 0,15.762 0,0 m -15.577,30.526 h -0.057 c -20.489,0 -31.21,-14.525 -31.21,-28.875 0,-16.46 12.952,-28.873 30.127,-28.873 17.755,0 30.641,12.431 30.641,29.558 0,16.07 -12.682,28.19 -29.501,28.19"
             style="fill:#ffffff;fill-opacity:1;fill-rule:nonzero;stroke:none"
             id="path86" /></g><g
           id="g88"
           transform="translate(1100.9143,185.4241)"><path
             d="m 0,0 v -21.06 l -2.196,-0.491 c -5.163,-1.165 -11.588,-2.615 -17.559,-2.615 -20.517,0 -33.775,11.133 -33.775,28.362 0,20.191 17.49,29.386 33.742,29.386 7.343,0 17.945,-2.916 17.945,-2.916 V 17.498 c 0,0 -5.093,10.691 -17.549,10.691 -8.36,0 -15.915,-4.885 -18.801,-13.352 -0.961,-2.962 -1.47,-6.151 -1.47,-9.217 0,-17.453 10.428,-24.46 20.763,-24.46 1.547,0 3.625,0.251 4.82,0.958 1.198,0.741 1.81,2.19 1.81,4.304 V -1.94 c 0,7.178 -5.179,9.299 -5.179,9.299 H 3.75 C 3.75,7.359 0,6.424 0,0"
             style="fill:#ffffff;fill-opacity:1;fill-rule:nonzero;stroke:none"
             id="path90" /></g><g
           id="g92"
           transform="translate(1349.3816,185.4241)"><path
             d="m 0,0 v -21.06 l -2.196,-0.491 c -5.163,-1.165 -11.588,-2.615 -17.559,-2.615 -20.517,0 -33.775,11.133 -33.775,28.362 0,20.191 17.49,29.386 33.742,29.386 7.343,0 17.945,-2.916 17.945,-2.916 V 17.498 c 0,0 -5.093,10.691 -17.549,10.691 -8.36,0 -15.916,-4.885 -18.801,-13.352 -0.961,-2.962 -1.47,-6.151 -1.47,-9.217 0,-17.453 10.428,-24.46 20.763,-24.46 1.547,0 3.625,0.251 4.82,0.958 1.198,0.741 1.81,2.19 1.81,4.304 V -1.94 c 0,7.178 -5.179,9.299 -5.179,9.299 H 3.75 C 3.75,7.359 0,6.424 0,0"
             style="fill:#ffffff;fill-opacity:1;fill-rule:nonzero;stroke:none"
             id="path94" /></g><g
           id="g96"
           transform="translate(549.3528,217.7533)"><path
             d="m 0,0 c 3.309,-1.383 2.556,-5.716 1.197,-9.133 -0.674,-1.884 -8.37,-20.325 -11.924,-28.849 -1.329,3.67 -9.987,28.023 -10.444,29.333 -1.105,3.11 -1.007,5.444 1.735,8.649 h -22.155 c 4.729,-2.931 6.005,-5.729 8.722,-12.812 4.591,-11.84 10.92,-28.692 15.92,-42.052 l 0.12,-0.32 h 5.863 l 17.553,42.65 C 8.513,-7.775 11.955,-2.033 15.923,0 Z"
             style="fill:#ffffff;fill-opacity:1;fill-rule:nonzero;stroke:none"
             id="path98" /></g><g
           id="g100"
           transform="translate(606.554,171.0935)"><path
             d="m 0,0 c -2.809,-3.176 -10.226,-2.971 -11.295,-2.971 -3.625,0 -5.595,0.112 -6.998,0.759 -1.487,0.625 -1.749,2.575 -1.749,6.441 v 12.029 h 6.787 c 6.13,0 10.327,-0.343 11.563,-3.322 v 12.88 c -1.17,-2.964 -5.176,-3.489 -11.563,-3.489 h -6.787 V 40.05 c 0,0.615 0.498,1.113 1.114,1.113 h 10.111 c 5.019,0 7.483,-0.835 9.535,-3.36 2.052,-2.524 3.374,-6.324 3.374,-6.324 V 46.66 h -41.198 c 1.296,-0.866 4.678,-3.943 4.678,-12.489 L -32.44,4.253 c 0,-10.572 -5.166,-12.777 -5.166,-12.777 H 5.099 V 7.734 C 5.099,7.734 2.809,3.176 0,0"
             style="fill:#ffffff;fill-opacity:1;fill-rule:nonzero;stroke:none"
             id="path102" /></g><g
           id="g104"
           transform="translate(1141.5817,168.1227)"><path
             d="M 0,0 C -3.625,0 -5.595,0.112 -6.998,0.758 -8.485,1.383 -8.747,3.334 -8.747,7.2 v 12.029 h 6.787 c 6.13,0 10.326,-0.344 11.563,-3.323 V 28.787 C 8.432,25.823 4.427,25.297 -1.96,25.297 h -6.787 v 16.424 c 0,2.413 0,2.413 3.039,2.413 h 8.186 c 5.019,0 7.483,-0.836 9.535,-3.36 2.052,-2.524 3.374,-6.324 3.374,-6.324 v 15.181 h -41.601 c 1.297,-0.867 4.679,-3.943 4.679,-12.49 L -21.547,7.224 c 0,-10.572 -5.166,-12.778 -5.166,-12.778 h 43.107 v 16.258 c 0,0 -2.29,-4.557 -5.099,-7.733 C 8.486,-0.205 1.069,0 0,0"
             style="fill:#ffffff;fill-opacity:1;fill-rule:nonzero;stroke:none"
             id="path106" /></g><g
           id="g108"
           transform="translate(1385.8398,162.569)"><path
             d="m 0,0 c 0,0 -5.166,2.205 -5.166,12.778 l -0.012,29.917 c 0,8.547 3.381,11.623 4.678,12.489 h -21.504 c 1.296,-0.866 4.678,-3.942 4.678,-12.489 L -17.338,12.778 C -17.338,2.205 -22.504,0 -22.504,0 Z"
             style="fill:#ffffff;fill-opacity:1;fill-rule:nonzero;stroke:none"
             id="path110" /></g><g
           id="g112"
           transform="translate(470.9932,162.5691)"><path
             d="m 0,0 c 0,0 -5.166,2.205 -5.166,12.778 l -0.013,29.917 c 0,8.547 3.382,11.623 4.679,12.489 h -15.435 c 1.297,-0.866 4.679,-3.942 4.679,-12.489 L -11.265,20.276 -41.957,55.184 H -55.45 c 1.297,-0.866 4.679,-3.942 4.679,-12.489 L -50.783,12.778 C -50.783,2.205 -55.95,0 -55.95,0 h 16.515 c 0,0 -5.166,2.205 -5.166,12.778 L -44.611,39.061 -11.893,0 Z"
             style="fill:#ffffff;fill-opacity:1;fill-rule:nonzero;stroke:none"
             id="path114" /></g><g
           id="g116"
           transform="translate(753.2153,162.569)"><path
             d="m 0,0 c 0,0 -5.166,2.205 -5.166,12.778 l -0.012,29.917 c 0,8.547 3.381,11.623 4.678,12.489 h -21.263 c 1.297,-0.866 4.679,-3.942 4.679,-12.489 L -17.097,12.778 C -17.097,2.205 -22.263,0 -22.263,0 Z"
             style="fill:#ffffff;fill-opacity:1;fill-rule:nonzero;stroke:none"
             id="path118" /></g><g
           id="g120"
           transform="translate(503.4857,162.569)"><path
             d="m 0,0 c 0,0 -5.166,2.205 -5.166,12.778 l -0.012,29.917 c 0,8.547 3.381,11.623 4.678,12.489 h -21.344 c 1.297,-0.866 4.679,-3.942 4.679,-12.489 L -17.177,12.778 C -17.177,2.205 -22.343,0 -22.343,0 Z"
             style="fill:#ffffff;fill-opacity:1;fill-rule:nonzero;stroke:none"
             id="path122" /></g><g
           id="g124"
           transform="translate(1410.8352,183.9249)"><path
             d="m 0,0 c 3.335,8.073 7.099,17.104 7.099,17.104 0,0 3.255,-8.989 6.192,-17.104 z m 38.297,-21.356 c -4.728,2.931 -6.004,5.729 -8.722,12.813 -4.59,11.839 -10.919,28.691 -15.919,42.051 l -0.12,0.32 H 6.868 l -17.552,-42.65 c -1.926,-4.759 -5.37,-10.5 -9.337,-12.534 h 16.245 c -3.309,1.383 -2.556,5.716 -1.198,9.133 0.237,0.66 1.165,2.956 2.406,5.985 h 18.115 c 1.259,-3.486 2.19,-6.067 2.331,-6.469 1.104,-3.11 1.006,-5.444 -1.736,-8.649 z"
             style="fill:#ffffff;fill-opacity:1;fill-rule:nonzero;stroke:none"
             id="path126" /></g><g
           id="g128"
           transform="translate(703.5459,196.5724)"><path
             d="m 0,0 c -7.87,3.697 -10.599,5.871 -10.76,10.492 -0.133,3.791 2.438,7.41 8.078,7.41 8.298,0 12.609,-4.575 15.083,-9.636 L 12.384,20.08 c -1.402,0.463 -8.445,2.253 -14.164,2.253 -12.014,0 -20.08,-7.054 -20.08,-16.474 0,-9.296 7.357,-13.294 16.521,-17.684 6.582,-3.234 10.235,-5.385 10.235,-10.355 0,-4.638 -2.638,-8.207 -8.187,-8.207 -9.096,0 -15.633,8.381 -17.723,13.768 l 0.277,-14.049 c 1.018,-0.52 5.017,-2.517 7.844,-3.258 2.509,-0.659 5.433,-1.271 8.434,-1.271 12.059,0 21.281,5.906 21.281,17.167 C 16.822,-9.649 9.276,-4.274 0,0"
             style="fill:#ffffff;fill-opacity:1;fill-rule:nonzero;stroke:none"
             id="path130" /></g><g
           id="g132"
           transform="translate(993.7292,162.569)"><path
             d="m 0,0 c 0,0 -5.166,2.205 -5.166,12.778 v 11.764 h 6.787 c 6.13,0 10.326,-0.344 11.563,-3.323 V 34.34 C 12.013,31.377 8.008,30.851 1.621,30.851 h -6.787 v 16.585 c 0,2.413 0,2.413 3.039,2.413 h 8.186 c 5.019,0 7.483,-0.836 9.535,-3.36 2.052,-2.524 3.374,-6.324 3.374,-6.324 v 15.019 h -41.359 c 1.297,-0.866 4.678,-3.942 4.678,-12.489 L -17.725,12.778 C -17.725,2.205 -22.891,0 -22.891,0 Z"
             style="fill:#ffffff;fill-opacity:1;fill-rule:nonzero;stroke:none"
             id="path134" /></g><g
           id="g136"
           transform="translate(792.2009,209.8437)"><path
             d="m 0,0 c 0,2.413 0,2.413 3.039,2.413 h 2.587 c 5.02,0 7.483,-0.836 9.536,-3.36 2.052,-2.524 3.374,-6.324 3.374,-6.324 V 7.91 H -30.933 V -7.271 c 0,0 1.321,3.8 3.374,6.324 2.052,2.524 4.516,3.36 9.535,3.36 h 2.587 c 3.039,0 3.039,0 3.039,-2.413 v -34.497 c 0,-10.573 -5.166,-12.778 -5.166,-12.778 h 22.73 c 0,0 -5.166,2.205 -5.166,12.778 z"
             style="fill:#ffffff;fill-opacity:1;fill-rule:nonzero;stroke:none"
             id="path138" /></g><g
           id="g140"
           transform="translate(395.8486,187.2596)"><path
             d="m 0,0 0.012,18.004 c 0,8.547 -3.382,11.624 -4.679,12.49 H 11.289 C 9.992,29.628 6.61,26.551 6.61,18.004 L 6.622,0.281 c 0,0 2.482,-25.881 -21.336,-26.294 0,0 -24.637,-1.353 -24.637,19.399 l 0.012,24.618 c 0,8.547 -3.382,11.624 -4.679,12.49 h 21.344 c -1.297,-0.866 -4.679,-3.943 -4.679,-12.49 l 0.012,-20.939 c 0,-17.583 13.327,-17.147 13.327,-17.147 0,0 14.014,-2.6 14.014,20.082"
             style="fill:#ffffff;fill-opacity:1;fill-rule:nonzero;stroke:none"
             id="path142" /></g><g
           id="g144"
           transform="translate(848.3408,217.6349)"><path
             d="m 0,0 c 0,0 6.461,-3.434 4.091,-8.491 l -8.171,-16.08 -8.597,15.621 c -3.018,5.564 2.543,8.95 2.543,8.95 h -23.649 c 0,0 5.039,-2.67 8.961,-9.331 l 12.264,-21.052 v -11.905 c 0,-10.573 -5.166,-12.778 -5.166,-12.778 H 4.684 c 0,0 -5.166,2.205 -5.166,12.778 v 12.553 L 9.817,-10.438 C 13.709,-2.921 20.37,0 20.37,0 Z"
             style="fill:#ffffff;fill-opacity:1;fill-rule:nonzero;stroke:none"
             id="path146" /></g><g
           id="g148"
           transform="translate(665.8162,174.972)"><path
             d="m 0,0 c -2.436,4.004 -6.14,9.988 -7.97,13.371 3.929,1.637 9.912,5.445 9.912,13.445 v 0.014 c 0.03,0.394 0.049,0.795 0.049,1.21 0,4.825 -2.082,8.916 -5.868,11.523 -3.495,2.346 -7.776,3.218 -15.796,3.218 h -21.784 c 1.299,-0.866 4.685,-3.942 4.685,-12.489 L -36.784,0.375 c 0,-10.573 -5.173,-12.778 -5.173,-12.778 h 22.359 c 0,0 -5.173,2.205 -5.173,12.778 v 10.474 h 1.701 c 2.518,0 3.964,-0.876 5.332,-3.225 0.849,-1.503 1.665,-3.008 2.46,-4.471 1.561,-2.874 3.575,-6.706 5.043,-8.953 3.47,-5.295 6.271,-7.599 16.91,-7.258 0,0 1.813,0.064 3.197,0.182 0,0 -3.647,2.645 -9.872,12.876 m -10.923,26.843 c 0,-4.235 -1.252,-7.285 -3.938,-9.598 l -0.003,-0.004 c -1.609,-1.411 -4.32,-2.098 -8.29,-2.098 h -1.617 v 19.85 c 0,1.575 0.163,2.336 0.561,2.695 0.65,0.531 1.889,0.8 3.682,0.8 4.643,0 9.605,-3.059 9.605,-11.645"
             style="fill:#ffffff;fill-opacity:1;fill-rule:nonzero;stroke:none"
             id="path150" /></g><g
           id="g152"
           transform="translate(1281.7556,174.972)"><path
             d="m 0,0 c -2.436,4.004 -6.14,9.988 -7.97,13.371 3.929,1.637 9.912,5.445 9.912,13.445 v 0.014 c 0.03,0.394 0.049,0.795 0.049,1.21 0,4.825 -2.082,8.916 -5.868,11.523 -3.495,2.346 -7.776,3.218 -15.796,3.218 h -21.784 c 1.299,-0.866 4.685,-3.942 4.685,-12.489 L -36.784,0.375 c 0,-10.573 -5.173,-12.778 -5.173,-12.778 h 22.359 c 0,0 -5.173,2.205 -5.173,12.778 v 10.474 h 1.701 c 2.518,0 3.964,-0.876 5.332,-3.225 0.849,-1.503 1.665,-3.008 2.461,-4.471 1.56,-2.874 3.574,-6.706 5.042,-8.953 3.47,-5.295 6.271,-7.599 16.91,-7.258 0,0 1.813,0.064 3.197,0.182 0,0 -3.647,2.645 -9.872,12.876 m -10.923,26.843 c 0,-4.235 -1.252,-7.285 -3.937,-9.598 l -0.004,-0.004 c -1.609,-1.411 -4.32,-2.098 -8.29,-2.098 h -1.617 v 19.85 c 0,1.575 0.163,2.336 0.561,2.695 0.65,0.531 1.889,0.8 3.682,0.8 4.643,0 9.605,-3.059 9.605,-11.645"
             style="fill:#ffffff;fill-opacity:1;fill-rule:nonzero;stroke:none"
             id="path154" /></g></g></g></g></svg>
